<svg width="402" height="368" viewBox="0 0 402 368" fill="none" xmlns="http://www.w3.org/2000/svg">
<g filter="url(#filter0_d_467:894)">
<rect x="8" y="4" width="386" height="352" rx="30" fill="#FCFCFC"/>
</g>
<path d="M109.615 315.8H100.687L98.8386 320H96.3666L103.975 303.2H106.351L113.983 320H111.463L109.615 315.8ZM108.775 313.88L105.151 305.648L101.527 313.88H108.775ZM126.753 307.28L121.185 320H118.833L113.264 307.28H115.665L120.033 317.48L124.497 307.28H126.753ZM133.136 307.16C134.896 307.16 136.24 307.592 137.168 308.456C138.112 309.32 138.584 310.608 138.584 312.32V320H136.4V318.32C136.016 318.912 135.464 319.368 134.744 319.688C134.04 319.992 133.2 320.144 132.224 320.144C130.8 320.144 129.656 319.8 128.792 319.112C127.944 318.424 127.52 317.52 127.52 316.4C127.52 315.28 127.928 314.384 128.744 313.712C129.56 313.024 130.856 312.68 132.632 312.68H136.28V312.224C136.28 311.232 135.992 310.472 135.416 309.944C134.84 309.416 133.992 309.152 132.872 309.152C132.12 309.152 131.384 309.28 130.664 309.536C129.944 309.776 129.336 310.104 128.84 310.52L127.88 308.792C128.536 308.264 129.32 307.864 130.232 307.592C131.144 307.304 132.112 307.16 133.136 307.16ZM132.608 318.368C133.488 318.368 134.248 318.176 134.888 317.792C135.528 317.392 135.992 316.832 136.28 316.112V314.336H132.728C130.776 314.336 129.8 314.992 129.8 316.304C129.8 316.944 130.048 317.448 130.544 317.816C131.04 318.184 131.728 318.368 132.608 318.368ZM142.848 307.28H145.152V320H142.848V307.28ZM144 304.832C143.552 304.832 143.176 304.688 142.872 304.4C142.584 304.112 142.44 303.76 142.44 303.344C142.44 302.928 142.584 302.576 142.872 302.288C143.176 301.984 143.552 301.832 144 301.832C144.448 301.832 144.816 301.976 145.104 302.264C145.408 302.536 145.56 302.88 145.56 303.296C145.56 303.728 145.408 304.096 145.104 304.4C144.816 304.688 144.448 304.832 144 304.832ZM149.551 302.192H151.855V320H149.551V302.192ZM160.886 307.16C162.646 307.16 163.99 307.592 164.918 308.456C165.862 309.32 166.334 310.608 166.334 312.32V320H164.15V318.32C163.766 318.912 163.214 319.368 162.494 319.688C161.79 319.992 160.95 320.144 159.974 320.144C158.55 320.144 157.406 319.8 156.542 319.112C155.694 318.424 155.27 317.52 155.27 316.4C155.27 315.28 155.678 314.384 156.494 313.712C157.31 313.024 158.606 312.68 160.382 312.68H164.03V312.224C164.03 311.232 163.742 310.472 163.166 309.944C162.59 309.416 161.742 309.152 160.622 309.152C159.87 309.152 159.134 309.28 158.414 309.536C157.694 309.776 157.086 310.104 156.59 310.52L155.63 308.792C156.286 308.264 157.07 307.864 157.982 307.592C158.894 307.304 159.862 307.16 160.886 307.16ZM160.358 318.368C161.238 318.368 161.998 318.176 162.638 317.792C163.278 317.392 163.742 316.832 164.03 316.112V314.336H160.478C158.526 314.336 157.55 314.992 157.55 316.304C157.55 316.944 157.798 317.448 158.294 317.816C158.79 318.184 159.478 318.368 160.358 318.368ZM177.342 307.16C178.574 307.16 179.678 307.432 180.654 307.976C181.63 308.52 182.39 309.28 182.934 310.256C183.494 311.232 183.774 312.36 183.774 313.64C183.774 314.92 183.494 316.056 182.934 317.048C182.39 318.024 181.63 318.784 180.654 319.328C179.678 319.872 178.574 320.144 177.342 320.144C176.398 320.144 175.534 319.96 174.75 319.592C173.966 319.224 173.318 318.688 172.806 317.984V320H170.598V302.192H172.902V309.2C173.414 308.528 174.054 308.024 174.822 307.688C175.59 307.336 176.43 307.16 177.342 307.16ZM177.15 318.128C177.966 318.128 178.694 317.944 179.334 317.576C179.99 317.192 180.502 316.664 180.87 315.992C181.254 315.304 181.446 314.52 181.446 313.64C181.446 312.76 181.254 311.984 180.87 311.312C180.502 310.624 179.99 310.096 179.334 309.728C178.694 309.36 177.966 309.176 177.15 309.176C176.35 309.176 175.622 309.36 174.966 309.728C174.31 310.096 173.798 310.624 173.43 311.312C173.062 311.984 172.878 312.76 172.878 313.64C172.878 314.52 173.062 315.304 173.43 315.992C173.798 316.664 174.31 317.192 174.966 317.576C175.622 317.944 176.35 318.128 177.15 318.128ZM186.957 302.192H189.261V320H186.957V302.192ZM205.157 313.712C205.157 313.888 205.141 314.12 205.109 314.408H194.789C194.933 315.528 195.421 316.432 196.253 317.12C197.101 317.792 198.149 318.128 199.397 318.128C200.917 318.128 202.141 317.616 203.069 316.592L204.341 318.08C203.765 318.752 203.045 319.264 202.181 319.616C201.333 319.968 200.381 320.144 199.325 320.144C197.981 320.144 196.789 319.872 195.749 319.328C194.709 318.768 193.901 317.992 193.325 317C192.765 316.008 192.485 314.888 192.485 313.64C192.485 312.408 192.757 311.296 193.301 310.304C193.861 309.312 194.621 308.544 195.581 308C196.557 307.44 197.653 307.16 198.869 307.16C200.085 307.16 201.165 307.44 202.109 308C203.069 308.544 203.813 309.312 204.341 310.304C204.885 311.296 205.157 312.432 205.157 313.712ZM198.869 309.104C197.765 309.104 196.837 309.44 196.085 310.112C195.349 310.784 194.917 311.664 194.789 312.752H202.949C202.821 311.68 202.381 310.808 201.629 310.136C200.893 309.448 199.973 309.104 198.869 309.104ZM222.721 320.192C221.025 320.192 219.497 319.824 218.137 319.088C216.777 318.336 215.705 317.304 214.921 315.992C214.153 314.68 213.769 313.216 213.769 311.6C213.769 309.984 214.153 308.52 214.921 307.208C215.705 305.896 216.777 304.872 218.137 304.136C219.497 303.384 221.025 303.008 222.721 303.008C224.401 303.008 225.921 303.384 227.281 304.136C228.641 304.872 229.705 305.896 230.473 307.208C231.241 308.504 231.625 309.968 231.625 311.6C231.625 313.232 231.241 314.704 230.473 316.016C229.705 317.312 228.641 318.336 227.281 319.088C225.921 319.824 224.401 320.192 222.721 320.192ZM222.721 318.056C223.953 318.056 225.057 317.776 226.033 317.216C227.025 316.656 227.801 315.888 228.361 314.912C228.937 313.92 229.225 312.816 229.225 311.6C229.225 310.384 228.937 309.288 228.361 308.312C227.801 307.32 227.025 306.544 226.033 305.984C225.057 305.424 223.953 305.144 222.721 305.144C221.489 305.144 220.369 305.424 219.361 305.984C218.369 306.544 217.585 307.32 217.009 308.312C216.449 309.288 216.169 310.384 216.169 311.6C216.169 312.816 216.449 313.92 217.009 314.912C217.585 315.888 218.369 316.656 219.361 317.216C220.369 317.776 221.489 318.056 222.721 318.056ZM237.165 309.416C237.565 308.68 238.157 308.12 238.941 307.736C239.725 307.352 240.677 307.16 241.797 307.16V309.392C241.669 309.376 241.493 309.368 241.269 309.368C240.021 309.368 239.037 309.744 238.317 310.496C237.613 311.232 237.261 312.288 237.261 313.664V320H234.957V307.28H237.165V309.416ZM256.688 307.28V318.272C256.688 320.496 256.136 322.136 255.032 323.192C253.928 324.264 252.28 324.8 250.088 324.8C248.888 324.8 247.744 324.632 246.656 324.296C245.568 323.976 244.688 323.512 244.016 322.904L245.12 321.128C245.712 321.64 246.44 322.04 247.304 322.328C248.184 322.632 249.088 322.784 250.016 322.784C251.504 322.784 252.6 322.432 253.304 321.728C254.024 321.024 254.384 319.952 254.384 318.512V317.504C253.84 318.16 253.168 318.656 252.368 318.992C251.584 319.312 250.728 319.472 249.8 319.472C248.584 319.472 247.48 319.216 246.488 318.704C245.512 318.176 244.744 317.448 244.184 316.52C243.624 315.576 243.344 314.504 243.344 313.304C243.344 312.104 243.624 311.04 244.184 310.112C244.744 309.168 245.512 308.44 246.488 307.928C247.48 307.416 248.584 307.16 249.8 307.16C250.76 307.16 251.648 307.336 252.464 307.688C253.296 308.04 253.976 308.56 254.504 309.248V307.28H256.688ZM250.064 317.456C250.896 317.456 251.64 317.28 252.296 316.928C252.968 316.576 253.488 316.088 253.856 315.464C254.24 314.824 254.432 314.104 254.432 313.304C254.432 312.072 254.024 311.08 253.208 310.328C252.392 309.56 251.344 309.176 250.064 309.176C248.768 309.176 247.712 309.56 246.896 310.328C246.08 311.08 245.672 312.072 245.672 313.304C245.672 314.104 245.856 314.824 246.224 315.464C246.608 316.088 247.128 316.576 247.784 316.928C248.456 317.28 249.216 317.456 250.064 317.456ZM265.722 307.16C267.482 307.16 268.826 307.592 269.754 308.456C270.698 309.32 271.17 310.608 271.17 312.32V320H268.986V318.32C268.602 318.912 268.05 319.368 267.33 319.688C266.626 319.992 265.786 320.144 264.81 320.144C263.386 320.144 262.242 319.8 261.378 319.112C260.53 318.424 260.106 317.52 260.106 316.4C260.106 315.28 260.514 314.384 261.33 313.712C262.146 313.024 263.442 312.68 265.218 312.68H268.866V312.224C268.866 311.232 268.578 310.472 268.002 309.944C267.426 309.416 266.578 309.152 265.458 309.152C264.706 309.152 263.97 309.28 263.25 309.536C262.53 309.776 261.922 310.104 261.426 310.52L260.466 308.792C261.122 308.264 261.906 307.864 262.818 307.592C263.73 307.304 264.698 307.16 265.722 307.16ZM265.194 318.368C266.074 318.368 266.834 318.176 267.474 317.792C268.114 317.392 268.578 316.832 268.866 316.112V314.336H265.314C263.362 314.336 262.386 314.992 262.386 316.304C262.386 316.944 262.634 317.448 263.13 317.816C263.626 318.184 264.314 318.368 265.194 318.368ZM282.226 307.16C283.842 307.16 285.122 307.632 286.066 308.576C287.026 309.504 287.506 310.872 287.506 312.68V320H285.202V312.944C285.202 311.712 284.906 310.784 284.314 310.16C283.722 309.536 282.874 309.224 281.77 309.224C280.522 309.224 279.538 309.592 278.818 310.328C278.098 311.048 277.738 312.088 277.738 313.448V320H275.434V307.28H277.642V309.2C278.106 308.544 278.73 308.04 279.514 307.688C280.314 307.336 281.218 307.16 282.226 307.16ZM295.418 320.144C294.378 320.144 293.378 320.008 292.418 319.736C291.458 319.448 290.706 319.088 290.162 318.656L291.122 316.832C291.682 317.232 292.362 317.552 293.162 317.792C293.962 318.032 294.77 318.152 295.586 318.152C297.602 318.152 298.61 317.576 298.61 316.424C298.61 316.04 298.474 315.736 298.202 315.512C297.93 315.288 297.586 315.128 297.17 315.032C296.77 314.92 296.194 314.8 295.442 314.672C294.418 314.512 293.578 314.328 292.922 314.12C292.282 313.912 291.73 313.56 291.266 313.064C290.802 312.568 290.57 311.872 290.57 310.976C290.57 309.824 291.05 308.904 292.01 308.216C292.97 307.512 294.258 307.16 295.874 307.16C296.722 307.16 297.57 307.264 298.418 307.472C299.266 307.68 299.962 307.96 300.506 308.312L299.522 310.136C298.482 309.464 297.258 309.128 295.85 309.128C294.874 309.128 294.13 309.288 293.618 309.608C293.106 309.928 292.85 310.352 292.85 310.88C292.85 311.296 292.994 311.624 293.282 311.864C293.57 312.104 293.922 312.28 294.338 312.392C294.77 312.504 295.37 312.632 296.138 312.776C297.162 312.952 297.986 313.144 298.61 313.352C299.25 313.544 299.794 313.88 300.242 314.36C300.69 314.84 300.914 315.512 300.914 316.376C300.914 317.528 300.418 318.448 299.426 319.136C298.45 319.808 297.114 320.144 295.418 320.144Z" fill="black"/>
<path d="M232.287 103.958H176.713C175.914 103.958 175.148 103.67 174.583 103.16C174.018 102.65 173.701 101.958 173.7 101.236V37.722C173.701 37.0004 174.018 36.3085 174.583 35.7982C175.148 35.2879 175.914 35.0008 176.713 35H232.287C233.086 35.0008 233.852 35.2879 234.417 35.7982C234.982 36.3085 235.299 37.0004 235.3 37.722V101.236C235.299 101.958 234.982 102.65 234.417 103.16C233.852 103.67 233.086 103.958 232.287 103.958ZM176.713 35.6049C176.091 35.6055 175.496 35.8288 175.056 36.2257C174.617 36.6226 174.37 37.1607 174.369 37.722V101.236C174.37 101.798 174.617 102.336 175.056 102.733C175.496 103.13 176.091 103.353 176.713 103.353H232.287C232.909 103.353 233.504 103.13 233.944 102.733C234.383 102.336 234.63 101.798 234.631 101.236V37.722C234.63 37.1607 234.383 36.6226 233.944 36.2257C233.504 35.8288 232.909 35.6055 232.287 35.6049H176.713Z" fill="#3F3D56"/>
<path d="M199.877 65.5299H187.644C187.245 65.5295 186.862 65.386 186.579 65.1308C186.297 64.8757 186.138 64.5297 186.137 64.1689V51.1274C186.138 50.7665 186.297 50.4206 186.579 50.1654C186.862 49.9103 187.245 49.7668 187.644 49.7664H199.877C200.276 49.7668 200.659 49.9103 200.942 50.1654C201.224 50.4206 201.383 50.7665 201.384 51.1274V64.1689C201.383 64.5297 201.224 64.8757 200.942 65.1308C200.659 65.386 200.276 65.5295 199.877 65.5299Z" fill="#F25670"/>
<path d="M223.647 71.5787H211.414C211.014 71.5783 210.631 71.4348 210.349 71.1796C210.067 70.9245 209.908 70.5785 209.907 70.2177V57.1762C209.908 56.8154 210.067 56.4694 210.349 56.2143C210.631 55.9591 211.014 55.8156 211.414 55.8152H223.647C224.046 55.8156 224.429 55.9591 224.712 56.2143C224.994 56.4694 225.153 56.8154 225.153 57.1762V70.2177C225.153 70.5785 224.994 70.9245 224.712 71.1796C224.429 71.4348 224.046 71.5783 223.647 71.5787Z" fill="#CCCCCC"/>
<path d="M204.564 90.0279H192.331C191.932 90.0275 191.549 89.884 191.266 89.6289C190.984 89.3737 190.825 89.0278 190.824 88.6669V75.6254C190.825 75.2646 190.984 74.9186 191.266 74.6635C191.549 74.4083 191.932 74.2648 192.331 74.2644H204.564C204.963 74.2648 205.346 74.4083 205.629 74.6635C205.911 74.9186 206.07 75.2646 206.071 75.6254V88.6669C206.07 89.0278 205.911 89.3737 205.629 89.6289C205.346 89.884 204.963 90.0275 204.564 90.0279Z" fill="#FF6584"/>
<path d="M321.987 169.266H266.412C265.614 169.266 264.848 168.979 264.283 168.468C263.718 167.958 263.4 167.266 263.399 166.544V103.03C263.4 102.308 263.718 101.617 264.283 101.106C264.848 100.596 265.614 100.309 266.412 100.308H321.987C322.786 100.309 323.552 100.596 324.117 101.106C324.681 101.617 324.999 102.308 325 103.03V166.544C324.999 167.266 324.681 167.958 324.117 168.468C323.552 168.979 322.786 169.266 321.987 169.266ZM266.412 100.913C265.791 100.914 265.195 101.137 264.756 101.534C264.317 101.931 264.07 102.469 264.069 103.03V166.544C264.07 167.106 264.317 167.644 264.756 168.041C265.195 168.438 265.791 168.661 266.412 168.662H321.987C322.608 168.661 323.204 168.438 323.643 168.041C324.083 167.644 324.33 167.106 324.33 166.544V103.03C324.33 102.469 324.083 101.931 323.643 101.534C323.204 101.137 322.608 100.914 321.987 100.913H266.412Z" fill="#3F3D56"/>
<path d="M303.741 114.373H284.658C284.303 114.373 283.963 114.246 283.711 114.019C283.46 113.792 283.319 113.484 283.319 113.163C283.319 112.842 283.46 112.534 283.711 112.307C283.963 112.08 284.303 111.953 284.658 111.953H303.741C304.096 111.953 304.437 112.08 304.688 112.307C304.939 112.534 305.08 112.842 305.08 113.163C305.08 113.484 304.939 113.792 304.688 114.019C304.437 114.246 304.096 114.373 303.741 114.373Z" fill="#F25670"/>
<path d="M313.115 125.866H275.284C275.108 125.866 274.934 125.835 274.771 125.775C274.608 125.714 274.46 125.625 274.336 125.512C274.211 125.4 274.112 125.266 274.045 125.119C273.978 124.973 273.943 124.815 273.943 124.656C273.943 124.497 273.978 124.339 274.045 124.192C274.112 124.045 274.211 123.912 274.336 123.799C274.46 123.687 274.608 123.598 274.771 123.537C274.934 123.476 275.108 123.445 275.284 123.446H313.115C313.291 123.445 313.465 123.476 313.628 123.537C313.791 123.598 313.939 123.687 314.063 123.799C314.188 123.912 314.287 124.045 314.354 124.192C314.422 124.339 314.457 124.497 314.457 124.656C314.457 124.815 314.422 124.973 314.354 125.119C314.287 125.266 314.188 125.4 314.063 125.512C313.939 125.625 313.791 125.714 313.628 125.775C313.465 125.835 313.291 125.866 313.115 125.866Z" fill="#CCCCCC"/>
<path d="M313.115 132.218H275.284C275.108 132.218 274.934 132.187 274.771 132.126C274.608 132.065 274.46 131.976 274.336 131.864C274.211 131.752 274.112 131.618 274.045 131.471C273.978 131.324 273.943 131.167 273.943 131.007C273.943 130.848 273.978 130.691 274.045 130.544C274.112 130.397 274.211 130.263 274.336 130.151C274.46 130.038 274.608 129.949 274.771 129.889C274.934 129.828 275.108 129.797 275.284 129.797H313.115C313.291 129.797 313.465 129.828 313.628 129.889C313.791 129.949 313.939 130.038 314.063 130.151C314.188 130.263 314.287 130.397 314.354 130.544C314.422 130.691 314.457 130.848 314.457 131.007C314.457 131.167 314.422 131.324 314.354 131.471C314.287 131.618 314.188 131.752 314.063 131.864C313.939 131.976 313.791 132.065 313.628 132.126C313.465 132.187 313.291 132.218 313.115 132.218Z" fill="#CCCCCC"/>
<path d="M313.115 138.569H275.284C275.108 138.569 274.934 138.538 274.771 138.477C274.608 138.417 274.46 138.328 274.336 138.215C274.211 138.103 274.112 137.969 274.045 137.822C273.978 137.675 273.943 137.518 273.943 137.359C273.943 137.2 273.978 137.042 274.045 136.895C274.112 136.748 274.211 136.615 274.336 136.502C274.46 136.39 274.608 136.301 274.771 136.24C274.934 136.179 275.108 136.148 275.284 136.148H313.115C313.291 136.148 313.465 136.179 313.628 136.24C313.791 136.301 313.939 136.39 314.063 136.502C314.188 136.615 314.287 136.748 314.354 136.895C314.422 137.042 314.457 137.2 314.457 137.359C314.457 137.518 314.422 137.675 314.354 137.822C314.287 137.969 314.188 138.103 314.063 138.215C313.939 138.328 313.791 138.417 313.628 138.477C313.465 138.538 313.291 138.569 313.115 138.569Z" fill="#CCCCCC"/>
<path d="M313.115 144.921H275.284C275.108 144.921 274.934 144.89 274.771 144.829C274.608 144.768 274.46 144.679 274.336 144.567C274.211 144.454 274.112 144.321 274.045 144.174C273.978 144.027 273.943 143.869 273.943 143.71C273.943 143.551 273.978 143.394 274.045 143.247C274.112 143.1 274.211 142.966 274.336 142.854C274.46 142.741 274.608 142.652 274.771 142.592C274.934 142.531 275.108 142.5 275.284 142.5H313.115C313.291 142.5 313.465 142.531 313.628 142.592C313.791 142.652 313.939 142.741 314.063 142.854C314.188 142.966 314.287 143.1 314.354 143.247C314.422 143.394 314.457 143.551 314.457 143.71C314.457 143.869 314.422 144.027 314.354 144.174C314.287 144.321 314.188 144.454 314.063 144.567C313.939 144.679 313.791 144.768 313.628 144.829C313.465 144.89 313.291 144.921 313.115 144.921Z" fill="#CCCCCC"/>
<path d="M313.115 151.272H275.284C275.108 151.272 274.934 151.241 274.771 151.18C274.608 151.12 274.46 151.031 274.336 150.918C274.211 150.806 274.112 150.672 274.045 150.525C273.978 150.378 273.943 150.221 273.943 150.062C273.943 149.902 273.978 149.745 274.045 149.598C274.112 149.451 274.211 149.317 274.336 149.205C274.46 149.093 274.608 149.004 274.771 148.943C274.934 148.882 275.108 148.851 275.284 148.851H313.115C313.291 148.851 313.465 148.882 313.628 148.943C313.791 149.004 313.939 149.093 314.063 149.205C314.188 149.317 314.287 149.451 314.354 149.598C314.422 149.745 314.457 149.902 314.457 150.062C314.457 150.221 314.422 150.378 314.354 150.525C314.287 150.672 314.188 150.806 314.063 150.918C313.939 151.031 313.791 151.12 313.628 151.18C313.465 151.241 313.291 151.272 313.115 151.272Z" fill="#CCCCCC"/>
<path d="M313.115 157.623H275.284C275.108 157.624 274.934 157.593 274.771 157.532C274.608 157.471 274.46 157.382 274.336 157.27C274.211 157.157 274.112 157.024 274.045 156.877C273.978 156.73 273.943 156.572 273.943 156.413C273.943 156.254 273.978 156.096 274.045 155.95C274.112 155.803 274.211 155.669 274.336 155.557C274.46 155.444 274.608 155.355 274.771 155.294C274.934 155.234 275.108 155.203 275.284 155.203H313.115C313.291 155.203 313.465 155.234 313.628 155.294C313.791 155.355 313.939 155.444 314.063 155.557C314.188 155.669 314.287 155.803 314.354 155.95C314.422 156.096 314.457 156.254 314.457 156.413C314.457 156.572 314.422 156.73 314.354 156.877C314.287 157.024 314.188 157.157 314.063 157.27C313.939 157.382 313.791 157.471 313.628 157.532C313.465 157.593 313.291 157.624 313.115 157.623Z" fill="#CCCCCC"/>
<path d="M142.588 169.266H87.0131C86.2142 169.266 85.4484 168.979 84.8835 168.468C84.3186 167.958 84.0009 167.266 84 166.544V103.03C84.0009 102.308 84.3186 101.617 84.8835 101.106C85.4484 100.596 86.2142 100.309 87.0131 100.308H142.588C143.386 100.309 144.152 100.596 144.717 101.106C145.282 101.617 145.6 102.308 145.601 103.03V166.544C145.6 167.266 145.282 167.958 144.717 168.468C144.152 168.979 143.386 169.266 142.588 169.266ZM87.0131 100.913C86.3917 100.914 85.7961 101.137 85.3567 101.534C84.9174 101.931 84.6703 102.469 84.6696 103.03V166.544C84.6703 167.106 84.9174 167.644 85.3567 168.041C85.7961 168.438 86.3917 168.661 87.0131 168.662H142.588C143.209 168.661 143.805 168.438 144.244 168.041C144.683 167.644 144.93 167.106 144.931 166.544V103.03C144.93 102.469 144.683 101.931 144.244 101.534C143.805 101.137 143.209 100.914 142.588 100.913H87.0131Z" fill="#3F3D56"/>
<path d="M133.774 115.305H117.034C116.679 115.305 116.339 115.178 116.087 114.951C115.836 114.724 115.695 114.416 115.695 114.095C115.695 113.774 115.836 113.466 116.087 113.239C116.339 113.012 116.679 112.885 117.034 112.885H133.774C134.129 112.885 134.469 113.012 134.721 113.239C134.972 113.466 135.113 113.774 135.113 114.095C135.113 114.416 134.972 114.724 134.721 114.951C134.469 115.178 134.129 115.305 133.774 115.305Z" fill="#3F3D56"/>
<path d="M133.774 121.656H117.034C116.679 121.656 116.339 121.529 116.087 121.302C115.836 121.075 115.695 120.767 115.695 120.446C115.695 120.125 115.836 119.817 116.087 119.59C116.339 119.363 116.679 119.236 117.034 119.236H133.774C134.129 119.236 134.469 119.363 134.721 119.59C134.972 119.817 135.113 120.125 135.113 120.446C135.113 120.767 134.972 121.075 134.721 121.302C134.469 121.529 134.129 121.656 133.774 121.656Z" fill="#3F3D56"/>
<path d="M108.445 125.272H96.2123C95.8129 125.272 95.4299 125.128 95.1475 124.873C94.8651 124.618 94.7062 124.272 94.7057 123.911V110.87C94.7062 110.509 94.8651 110.163 95.1475 109.908C95.4299 109.652 95.8129 109.509 96.2123 109.509H108.445C108.845 109.509 109.228 109.652 109.51 109.908C109.793 110.163 109.951 110.509 109.952 110.87V123.911C109.951 124.272 109.793 124.618 109.51 124.873C109.228 125.128 108.845 125.272 108.445 125.272Z" fill="#F25670"/>
<path d="M133.658 134.662H95.8269C95.6508 134.662 95.4764 134.631 95.3137 134.57C95.1509 134.51 95.0031 134.421 94.8785 134.308C94.7539 134.196 94.655 134.062 94.5876 133.915C94.5201 133.768 94.4854 133.611 94.4854 133.452C94.4854 133.293 94.5201 133.135 94.5876 132.988C94.655 132.841 94.7539 132.708 94.8785 132.595C95.0031 132.483 95.1509 132.394 95.3137 132.333C95.4764 132.272 95.6508 132.241 95.8269 132.241H133.658C133.834 132.241 134.008 132.272 134.171 132.333C134.334 132.394 134.481 132.483 134.606 132.595C134.731 132.708 134.83 132.841 134.897 132.988C134.964 133.135 134.999 133.293 134.999 133.452C134.999 133.611 134.964 133.768 134.897 133.915C134.83 134.062 134.731 134.196 134.606 134.308C134.481 134.421 134.334 134.51 134.171 134.57C134.008 134.631 133.834 134.662 133.658 134.662Z" fill="#CCCCCC"/>
<path d="M133.658 141.013H95.8269C95.6508 141.013 95.4764 140.982 95.3137 140.922C95.1509 140.861 95.0031 140.772 94.8785 140.659C94.7539 140.547 94.655 140.413 94.5876 140.266C94.5201 140.119 94.4854 139.962 94.4854 139.803C94.4854 139.644 94.5201 139.486 94.5876 139.339C94.655 139.192 94.7539 139.059 94.8785 138.946C95.0031 138.834 95.1509 138.745 95.3137 138.684C95.4764 138.623 95.6508 138.592 95.8269 138.593H133.658C133.834 138.592 134.008 138.623 134.171 138.684C134.334 138.745 134.481 138.834 134.606 138.946C134.731 139.059 134.83 139.192 134.897 139.339C134.964 139.486 134.999 139.644 134.999 139.803C134.999 139.962 134.964 140.119 134.897 140.266C134.83 140.413 134.731 140.547 134.606 140.659C134.481 140.772 134.334 140.861 134.171 140.922C134.008 140.982 133.834 141.013 133.658 141.013Z" fill="#CCCCCC"/>
<path d="M133.658 147.365H95.8269C95.6508 147.365 95.4764 147.334 95.3137 147.273C95.1509 147.212 95.0031 147.123 94.8785 147.011C94.7539 146.899 94.655 146.765 94.5876 146.618C94.5201 146.471 94.4854 146.313 94.4854 146.154C94.4854 145.995 94.5201 145.838 94.5876 145.691C94.655 145.544 94.7539 145.41 94.8785 145.298C95.0031 145.185 95.1509 145.096 95.3137 145.036C95.4764 144.975 95.6508 144.944 95.8269 144.944H133.658C133.834 144.944 134.008 144.975 134.171 145.036C134.334 145.096 134.481 145.185 134.606 145.298C134.731 145.41 134.83 145.544 134.897 145.691C134.964 145.838 134.999 145.995 134.999 146.154C134.999 146.313 134.964 146.471 134.897 146.618C134.83 146.765 134.731 146.899 134.606 147.011C134.481 147.123 134.334 147.212 134.171 147.273C134.008 147.334 133.834 147.365 133.658 147.365Z" fill="#CCCCCC"/>
<path d="M133.658 153.716H95.8269C95.6508 153.716 95.4764 153.685 95.3137 153.624C95.1509 153.564 95.0031 153.475 94.8785 153.362C94.7539 153.25 94.655 153.116 94.5876 152.969C94.5201 152.822 94.4854 152.665 94.4854 152.506C94.4854 152.347 94.5201 152.189 94.5876 152.042C94.655 151.895 94.7539 151.762 94.8785 151.649C95.0031 151.537 95.1509 151.448 95.3137 151.387C95.4764 151.326 95.6508 151.295 95.8269 151.295H133.658C133.834 151.295 134.008 151.326 134.171 151.387C134.334 151.448 134.481 151.537 134.606 151.649C134.731 151.762 134.83 151.895 134.897 152.042C134.964 152.189 134.999 152.347 134.999 152.506C134.999 152.665 134.964 152.822 134.897 152.969C134.83 153.116 134.731 153.25 134.606 153.362C134.481 153.475 134.334 153.564 134.171 153.624C134.008 153.685 133.834 153.716 133.658 153.716Z" fill="#CCCCCC"/>
<path d="M133.658 160.068H95.8269C95.6508 160.068 95.4764 160.037 95.3137 159.976C95.1509 159.915 95.0031 159.826 94.8785 159.714C94.7539 159.601 94.655 159.468 94.5876 159.321C94.5201 159.174 94.4854 159.016 94.4854 158.857C94.4854 158.698 94.5201 158.541 94.5876 158.394C94.655 158.247 94.7539 158.113 94.8785 158.001C95.0031 157.888 95.1509 157.799 95.3137 157.739C95.4764 157.678 95.6508 157.647 95.8269 157.647H133.658C133.834 157.647 134.008 157.678 134.171 157.739C134.334 157.799 134.481 157.888 134.606 158.001C134.731 158.113 134.83 158.247 134.897 158.394C134.964 158.541 134.999 158.698 134.999 158.857C134.999 159.016 134.964 159.174 134.897 159.321C134.83 159.468 134.731 159.601 134.606 159.714C134.481 159.826 134.334 159.915 134.171 159.976C134.008 160.037 133.834 160.068 133.658 160.068Z" fill="#CCCCCC"/>
<path d="M163.597 206.079V193.038C163.597 192.677 163.756 192.331 164.039 192.076C164.321 191.821 164.704 191.677 165.103 191.677H177.337C177.736 191.677 178.119 191.821 178.401 192.076C178.684 192.331 178.843 192.677 178.843 193.038V206.079C178.843 206.44 178.684 206.786 178.401 207.041C178.119 207.296 177.736 207.44 177.337 207.44H165.103C164.704 207.44 164.321 207.296 164.039 207.041C163.756 206.786 163.597 206.44 163.597 206.079Z" fill="#E6E6E6"/>
<path d="M168.004 201.736V188.695C168.004 188.334 168.163 187.988 168.445 187.733C168.728 187.478 169.111 187.334 169.51 187.334H181.743C182.143 187.334 182.526 187.478 182.808 187.733C183.09 187.988 183.249 188.334 183.25 188.695V201.736C183.249 202.097 183.09 202.443 182.808 202.698C182.526 202.954 182.143 203.097 181.743 203.098H169.51C169.111 203.097 168.728 202.954 168.445 202.698C168.163 202.443 168.004 202.097 168.004 201.736Z" fill="#F25670"/>
<path d="M222.841 197.563C222.381 197.323 221.984 196.995 221.68 196.601C221.375 196.207 221.17 195.758 221.078 195.285C220.987 194.812 221.011 194.326 221.15 193.863C221.288 193.399 221.538 192.968 221.88 192.601L218.089 167.562L225.987 167.912L227.227 192.335C227.872 192.896 228.267 193.651 228.336 194.458C228.406 195.264 228.145 196.065 227.605 196.71C227.064 197.354 226.281 197.797 225.403 197.954C224.525 198.112 223.613 197.973 222.841 197.563V197.563Z" fill="#A0616A"/>
<path d="M227.071 168.246C226.91 168.418 226.702 168.551 226.468 168.631L219.37 171.079C219.013 171.202 218.618 171.196 218.266 171.064C217.914 170.932 217.631 170.683 217.476 170.368L211.188 157.601C210.584 156.417 210.481 155.074 210.899 153.826C211.207 152.935 211.776 152.136 212.546 151.513C213.315 150.89 214.256 150.466 215.27 150.286C216.049 150.141 216.855 150.151 217.629 150.316C218.558 150.503 219.42 150.896 220.138 151.46C220.856 152.024 221.407 152.74 221.741 153.545L227.332 166.895C227.426 167.121 227.451 167.365 227.405 167.603C227.36 167.84 227.244 168.062 227.071 168.246Z" fill="#CCCCCC"/>
<path d="M190.081 258.679H185.17L183.389 241.484L190.082 241.565L190.081 258.679Z" fill="#A0616A"/>
<path d="M181.662 257.411H191.134V262.799H175.698C175.698 262.091 175.853 261.39 176.152 260.737C176.452 260.083 176.891 259.489 177.445 258.989C177.999 258.489 178.656 258.092 179.38 257.821C180.103 257.55 180.879 257.411 181.662 257.411Z" fill="#2F2E41"/>
<path d="M212.915 258.679H208.004L205.668 241.565L212.916 241.565L212.915 258.679Z" fill="#A0616A"/>
<path d="M204.496 257.411H213.968V262.799H198.532C198.532 262.091 198.687 261.39 198.986 260.737C199.286 260.083 199.725 259.489 200.279 258.989C200.833 258.489 201.49 258.092 202.214 257.821C202.937 257.55 203.713 257.411 204.496 257.411Z" fill="#2F2E41"/>
<path d="M213.533 252.59L205.819 252.074C205.381 252.044 204.969 251.871 204.662 251.586C204.355 251.301 204.174 250.925 204.152 250.528L202.432 218.416C202.416 218.108 202.275 217.816 202.037 217.595C201.799 217.374 201.48 217.239 201.139 217.215C200.799 217.191 200.46 217.281 200.188 217.466C199.915 217.652 199.727 217.921 199.658 218.224L192.483 249.857C192.394 250.246 192.151 250.592 191.799 250.831C191.448 251.07 191.012 251.184 190.573 251.153L183.6 250.649C183.361 250.632 183.129 250.572 182.916 250.472C182.703 250.373 182.514 250.236 182.36 250.069C182.207 249.903 182.091 249.711 182.021 249.504C181.951 249.297 181.927 249.079 181.95 248.864L188.419 190.425C188.444 190.196 188.523 189.975 188.649 189.776C188.776 189.577 188.947 189.404 189.153 189.269C189.359 189.134 189.593 189.04 189.842 188.993C190.091 188.946 190.348 188.947 190.596 188.995L215.195 193.826C215.602 193.907 215.966 194.113 216.225 194.408C216.484 194.704 216.621 195.071 216.614 195.448L215.469 250.996C215.46 251.422 215.266 251.828 214.93 252.127C214.594 252.425 214.142 252.593 213.67 252.595C213.625 252.595 213.579 252.593 213.533 252.59Z" fill="#2F2E41"/>
<path d="M206.785 141.562C212.219 141.562 216.624 137.583 216.624 132.674C216.624 127.765 212.219 123.785 206.785 123.785C201.351 123.785 196.946 127.765 196.946 132.674C196.946 137.583 201.351 141.562 206.785 141.562Z" fill="#A0616A"/>
<path d="M191.519 194.931C190.573 194.165 189.822 193.223 189.317 192.169C188.813 191.115 188.567 189.975 188.597 188.827C188.597 176.052 200.838 147.51 201.221 146.619C201.259 146.404 201.582 146.312 203.276 145.278C204.972 144.243 207.416 144.084 210.543 144.805C210.861 144.879 211.15 145.03 211.379 145.241C211.609 145.453 211.77 145.718 211.845 146.006L212.426 146.765C212.477 146.958 212.577 147.137 212.718 147.288C212.859 147.439 213.038 147.559 213.239 147.636C215.76 148.596 223.774 153.02 221.043 169.673C218.507 185.142 217.477 194.239 217.152 197.433C217.114 197.812 216.93 198.167 216.632 198.436C216.334 198.704 215.941 198.87 215.521 198.904C214.285 199.004 212.164 199.137 209.637 199.137C203.78 199.137 195.746 198.423 191.519 194.931Z" fill="#CCCCCC"/>
<path d="M179.762 190.198C179.528 189.767 179.401 189.295 179.391 188.814C179.381 188.334 179.488 187.858 179.704 187.419C179.919 186.98 180.239 186.589 180.64 186.274C181.041 185.959 181.514 185.727 182.025 185.594L194.321 162.894L200.663 167.161L186.629 188.065C186.818 188.856 186.68 189.681 186.24 190.386C185.801 191.09 185.091 191.624 184.244 191.887C183.398 192.15 182.474 192.123 181.648 191.812C180.822 191.501 180.151 190.927 179.762 190.198L179.762 190.198Z" fill="#A0616A"/>
<path d="M201.358 167.983C201.117 168.045 200.863 168.051 200.62 168L193.216 166.459C192.844 166.381 192.519 166.178 192.308 165.891C192.097 165.604 192.016 165.254 192.081 164.915L194.734 151.149C194.963 149.861 195.706 148.695 196.823 147.869C197.628 147.284 198.594 146.907 199.617 146.777C200.64 146.647 201.683 146.769 202.636 147.129C203.373 147.401 204.035 147.815 204.577 148.342C205.232 148.965 205.706 149.725 205.954 150.555C206.202 151.384 206.218 152.256 205.999 153.093L202.407 166.993C202.346 167.228 202.216 167.443 202.032 167.617C201.847 167.792 201.615 167.918 201.358 167.983Z" fill="#CCCCCC"/>
<path d="M204.481 140.705C204.002 140.263 203.649 139.724 203.451 139.132C203.253 138.541 203.216 137.915 203.344 137.308C203.687 135.686 203.888 134.626 203.927 134.24C204.057 132.92 202.58 131.851 201.118 131.681C201.062 131.674 201.014 131.67 200.975 131.667C201.012 131.7 201.052 131.734 201.087 131.764C201.365 131.999 201.71 132.293 201.628 132.595C201.579 132.777 201.394 132.907 201.065 132.99C198.779 133.568 197.018 133.037 195.524 131.319C195.104 130.831 194.815 130.261 194.681 129.655C194.146 127.283 195.572 125.261 196.862 123.982C197.927 122.928 199.652 121.648 201.827 121.539C203.519 121.453 205.531 122.333 206.133 123.918C206.417 123.538 206.796 123.222 207.238 122.997C207.68 122.772 208.175 122.643 208.682 122.62C209.837 122.597 210.974 122.883 211.95 123.441C216.721 125.91 218.771 131.791 216.427 136.284C214.953 139.111 211.759 141.215 208.091 141.775C207.861 141.81 207.629 141.828 207.396 141.828C206.851 141.828 206.313 141.728 205.812 141.535C205.311 141.342 204.859 141.059 204.481 140.705Z" fill="#2F2E41"/>
<path d="M158.343 263H236.459C236.565 263 236.667 262.962 236.743 262.894C236.818 262.826 236.86 262.734 236.86 262.638C236.86 262.542 236.818 262.45 236.743 262.382C236.667 262.314 236.565 262.276 236.459 262.276H158.343C158.236 262.276 158.134 262.314 158.059 262.382C157.984 262.45 157.942 262.542 157.942 262.638C157.942 262.734 157.984 262.826 158.059 262.894C158.134 262.962 158.236 263 158.343 263Z" fill="#3F3D56"/>
<defs>
<filter id="filter0_d_467:894" x="0" y="0" width="402" height="368" filterUnits="userSpaceOnUse" color-interpolation-filters="sRGB">
<feFlood flood-opacity="0" result="BackgroundImageFix"/>
<feColorMatrix in="SourceAlpha" type="matrix" values="0 0 0 0 0 0 0 0 0 0 0 0 0 0 0 0 0 0 127 0" result="hardAlpha"/>
<feOffset dy="4"/>
<feGaussianBlur stdDeviation="4"/>
<feComposite in2="hardAlpha" operator="out"/>
<feColorMatrix type="matrix" values="0 0 0 0 0 0 0 0 0 0 0 0 0 0 0 0 0 0 0.25 0"/>
<feBlend mode="normal" in2="BackgroundImageFix" result="effect1_dropShadow_467:894"/>
<feBlend mode="normal" in="SourceGraphic" in2="effect1_dropShadow_467:894" result="shape"/>
</filter>
</defs>
</svg>
