<svg width="290" height="210" viewBox="0 0 290 210" fill="none" xmlns="http://www.w3.org/2000/svg">
<path opacity="0.1" d="M168.564 37.8213C149.984 37.1764 132.273 31.1785 115.387 24.6176C98.5015 18.0567 81.765 10.786 63.6197 7.30988C51.9533 5.07158 38.6113 4.75727 29.2135 11.0124C20.1678 17.03 17.2464 27.4183 15.6751 37.0566C14.4933 44.3094 13.8078 51.941 17.0395 58.732C19.2892 63.4443 23.2813 67.4067 26.0433 71.9215C35.6502 87.63 28.8599 107.003 18.4485 122.355C13.5656 129.56 7.90086 136.415 4.1334 144.076C0.365938 151.737 -1.37883 160.514 1.91965 168.327C5.18877 176.065 12.9754 181.887 21.4131 185.977C38.5499 194.278 58.7418 196.652 78.4321 198.012C122.018 200.991 165.838 199.697 209.539 198.404C225.712 197.923 241.957 197.439 257.866 194.933C266.701 193.543 275.824 191.338 282.239 186.017C290.38 179.26 292.399 167.823 286.942 159.351C277.789 145.145 252.484 141.616 246.085 126.369C242.565 117.977 246.18 108.627 251.298 100.843C262.272 84.1462 280.673 69.4959 281.641 50.4088C282.307 37.2989 273.461 24.1733 259.783 17.9699C245.448 11.4622 225.568 12.285 214.994 23.0417C204.104 34.1241 184.967 38.389 168.564 37.8213Z" fill="#F25670"/>
<path d="M64.8205 194.464C64.8205 194.464 50.1438 183.369 47.3707 169.256C46.2461 163.329 43.2302 157.926 38.7751 153.857C36.6439 151.944 34.3421 150.229 31.8984 148.734" stroke="#535461" stroke-width="2" stroke-miterlimit="10"/>
<path d="M30.1021 139.843C31.3884 141.583 31.9704 148.955 31.9704 148.955C31.9704 148.955 25.0938 146.247 23.8049 144.51C23.186 143.675 22.9241 142.628 23.077 141.6C23.2298 140.572 23.7848 139.647 24.6199 139.028C25.4549 138.409 26.5017 138.147 27.5298 138.3C28.5579 138.453 29.4832 139.008 30.1021 139.843Z" fill="#F25670"/>
<path d="M42.4357 145.628C42.5692 147.786 39.0552 154.292 39.0552 154.292C39.0552 154.292 34.7508 148.278 34.6146 146.119C34.5628 145.09 34.9186 144.082 35.6049 143.313C36.2912 142.544 37.2528 142.077 38.2812 142.012C39.3096 141.948 40.3221 142.291 41.0992 142.968C41.8764 143.644 42.3556 144.6 42.433 145.628L42.4357 145.628Z" fill="#F25670"/>
<path d="M54.391 162.257C53.4198 164.189 47.0985 168.032 47.0985 168.032C47.0985 168.032 46.4231 160.667 47.3943 158.735C47.8724 157.826 48.6881 157.142 49.6658 156.829C50.6435 156.515 51.7051 156.599 52.6221 157.06C53.5391 157.522 54.2383 158.325 54.5691 159.297C54.8999 160.269 54.836 161.332 54.391 162.257Z" fill="#F25670"/>
<path d="M60.6063 176.869C59.9739 178.937 54.3945 183.791 54.3945 183.791C54.3945 183.791 52.481 176.647 53.1133 174.577C53.4172 173.583 54.1034 172.751 55.0209 172.263C55.9384 171.775 57.0121 171.672 58.0057 171.976C58.9993 172.28 59.8315 172.966 60.3192 173.884C60.8069 174.801 60.9102 175.875 60.6063 176.869Z" fill="#F25670"/>
<path d="M32.6939 159.522C34.8287 159.81 41.5769 156.763 41.5769 156.763C41.5769 156.763 35.8824 152.045 33.737 151.757C32.7072 151.619 31.6648 151.895 30.8388 152.526C30.0129 153.156 29.4712 154.088 29.3329 155.118C29.1946 156.148 29.471 157.19 30.1013 158.016C30.7316 158.842 31.6642 159.384 32.6939 159.522Z" fill="#F25670"/>
<path d="M40.1796 176.523C42.3144 176.157 47.8297 171.234 47.8297 171.234C47.8297 171.234 40.9825 168.437 38.8505 168.803C38.34 168.887 37.8512 169.071 37.4122 169.344C36.9732 169.618 36.5928 169.976 36.2928 170.397C35.9929 170.819 35.7794 171.295 35.6646 171.8C35.5499 172.304 35.5362 172.826 35.6243 173.336C35.7124 173.846 35.9006 174.333 36.178 174.769C36.4555 175.206 36.8166 175.583 37.2406 175.88C37.6646 176.176 38.1431 176.385 38.6485 176.496C39.1538 176.606 39.6761 176.615 40.185 176.523L40.1796 176.523Z" fill="#F25670"/>
<path d="M49.7199 192.05C51.884 192.05 58.1546 188.129 58.1546 188.129C58.1546 188.129 51.881 184.215 49.7169 184.215C48.678 184.215 47.6816 184.628 46.9471 185.363C46.2125 186.097 45.7998 187.094 45.7998 188.133C45.7999 189.171 46.2126 190.168 46.9473 190.902C47.6819 191.637 48.6783 192.05 49.7172 192.05L49.7199 192.05Z" fill="#F25670"/>
<path d="M207.389 98.494C207.389 98.494 216.434 82.4698 230.07 77.8529C235.795 75.9512 240.75 72.2442 244.19 67.2881C245.804 64.9187 247.196 62.406 248.35 59.7817" stroke="#535461" stroke-width="2" stroke-miterlimit="10"/>
<path d="M256.91 56.8459C255.357 58.3509 248.129 59.9096 248.129 59.9096C248.129 59.9096 249.903 52.7315 251.456 51.2238C252.205 50.5219 253.201 50.1425 254.227 50.1671C255.254 50.1918 256.23 50.6185 256.945 51.3556C257.66 52.0926 258.057 53.0809 258.05 54.1078C258.044 55.1346 257.634 56.1179 256.91 56.8459Z" fill="#F25670"/>
<path d="M252.823 69.8226C250.688 70.2443 243.785 67.6242 243.785 67.6242C243.785 67.6242 249.175 62.554 251.296 62.1403C251.806 62.0273 252.333 62.0171 252.846 62.1104C253.359 62.2038 253.849 62.3987 254.286 62.6838C254.723 62.9689 255.098 63.3384 255.39 63.7707C255.683 64.2029 255.886 64.6892 255.987 65.201C256.089 65.7127 256.087 66.2396 255.983 66.7508C255.878 67.2619 255.672 67.7469 255.377 68.1775C255.083 68.608 254.705 68.9753 254.266 69.2578C253.828 69.5403 253.337 69.7323 252.823 69.8226Z" fill="#F25670"/>
<path d="M237.945 83.8804C235.901 83.1733 231.255 77.4204 231.255 77.4204C231.255 77.4204 238.459 75.7711 240.509 76.4781C241.001 76.6414 241.456 76.9009 241.847 77.2415C242.239 77.5821 242.558 77.997 242.788 78.4622C243.018 78.9274 243.153 79.4335 243.185 79.9513C243.217 80.469 243.147 80.9881 242.977 81.4783C242.807 81.9684 242.542 82.42 242.196 82.8068C241.85 83.1936 241.431 83.5078 240.963 83.7313C240.495 83.9547 239.987 84.083 239.469 84.1086C238.951 84.1342 238.433 84.0566 237.945 83.8804Z" fill="#F25670"/>
<path d="M224.272 91.9821C222.137 91.63 216.597 86.7337 216.597 86.7337C216.597 86.7337 223.426 83.8889 225.558 84.241C226.584 84.4098 227.501 84.9792 228.107 85.8242C228.714 86.6691 228.959 87.7203 228.791 88.7465C228.622 89.7727 228.053 90.6898 227.208 91.2961C226.363 91.9024 225.311 92.1482 224.285 91.9794L224.272 91.9821Z" fill="#F25670"/>
<path d="M237.757 62.0132C237.754 64.1772 241.68 70.4558 241.68 70.4558C241.68 70.4558 245.599 64.1849 245.599 62.0235C245.613 61.5007 245.522 60.9804 245.331 60.4934C245.14 60.0063 244.854 59.5624 244.489 59.1878C244.124 58.8132 243.688 58.5155 243.206 58.3122C242.724 58.1089 242.206 58.0042 241.683 58.0042C241.16 58.0043 240.642 58.109 240.161 58.3123C239.679 58.5157 239.242 58.8134 238.877 59.1881C238.512 59.5627 238.226 60.0066 238.036 60.4937C237.845 60.9807 237.754 61.501 237.767 62.0238L237.757 62.0132Z" fill="#F25670"/>
<path d="M221.899 71.6893C222.545 73.7546 228.159 78.5709 228.159 78.5709C228.159 78.5709 230.027 71.4141 229.376 69.3488C229.038 68.3919 228.342 67.6034 227.435 67.1493C226.527 66.6952 225.479 66.611 224.511 66.9143C223.542 67.2176 222.73 67.8849 222.243 68.7756C221.757 69.6662 221.636 70.7108 221.904 71.6893L221.899 71.6893Z" fill="#F25670"/>
<path d="M207.791 83.209C208.08 85.3437 212.798 91.0459 212.798 91.0459C212.798 91.0459 215.842 84.3081 215.554 82.1653C215.497 81.6462 215.336 81.1437 215.082 80.6875C214.828 80.2312 214.485 79.8304 214.073 79.5087C213.662 79.1869 213.19 78.9507 212.686 78.8139C212.182 78.677 211.656 78.6424 211.138 78.712C210.621 78.7816 210.122 78.954 209.672 79.2191C209.222 79.4842 208.83 79.8366 208.518 80.2556C208.206 80.6746 207.981 81.1518 207.856 81.659C207.732 82.1662 207.71 82.6932 207.791 83.209Z" fill="#F25670"/>
<path opacity="0.25" d="M256.91 56.8459C255.357 58.3509 248.129 59.9096 248.129 59.9096C248.129 59.9096 249.903 52.7315 251.456 51.2238C252.205 50.5219 253.201 50.1425 254.227 50.1671C255.254 50.1918 256.23 50.6185 256.945 51.3556C257.66 52.0926 258.057 53.0809 258.05 54.1078C258.044 55.1346 257.634 56.1179 256.91 56.8459Z" fill="black"/>
<path opacity="0.25" d="M252.823 69.8226C250.688 70.2443 243.785 67.6242 243.785 67.6242C243.785 67.6242 249.175 62.554 251.296 62.1403C251.806 62.0273 252.333 62.0171 252.846 62.1104C253.359 62.2038 253.849 62.3987 254.286 62.6838C254.723 62.9689 255.098 63.3384 255.39 63.7707C255.683 64.2029 255.886 64.6892 255.987 65.201C256.089 65.7127 256.087 66.2396 255.983 66.7508C255.878 67.2619 255.672 67.7469 255.377 68.1775C255.083 68.608 254.705 68.9753 254.266 69.2578C253.828 69.5403 253.337 69.7323 252.823 69.8226Z" fill="black"/>
<path opacity="0.25" d="M237.945 83.8804C235.901 83.1733 231.255 77.4204 231.255 77.4204C231.255 77.4204 238.459 75.7711 240.509 76.4781C241.001 76.6414 241.456 76.9009 241.847 77.2415C242.239 77.5821 242.558 77.997 242.788 78.4622C243.018 78.9274 243.153 79.4335 243.185 79.9513C243.217 80.469 243.147 80.9881 242.977 81.4783C242.807 81.9684 242.542 82.42 242.196 82.8068C241.85 83.1936 241.431 83.5078 240.963 83.7313C240.495 83.9547 239.987 84.083 239.469 84.1086C238.951 84.1342 238.433 84.0566 237.945 83.8804Z" fill="black"/>
<path opacity="0.25" d="M224.272 91.9821C222.137 91.63 216.597 86.7337 216.597 86.7337C216.597 86.7337 223.426 83.8889 225.558 84.241C226.584 84.4098 227.501 84.9792 228.107 85.8242C228.714 86.6691 228.959 87.7203 228.791 88.7465C228.622 89.7727 228.053 90.6898 227.208 91.2961C226.363 91.9024 225.311 92.1482 224.285 91.9794L224.272 91.9821Z" fill="black"/>
<path opacity="0.25" d="M237.757 62.0132C237.754 64.1772 241.68 70.4558 241.68 70.4558C241.68 70.4558 245.599 64.1849 245.599 62.0235C245.613 61.5007 245.522 60.9804 245.331 60.4934C245.14 60.0063 244.854 59.5624 244.489 59.1878C244.124 58.8132 243.688 58.5155 243.206 58.3122C242.724 58.1089 242.206 58.0042 241.683 58.0042C241.16 58.0043 240.642 58.109 240.161 58.3123C239.679 58.5157 239.242 58.8134 238.877 59.1881C238.512 59.5627 238.226 60.0066 238.036 60.4937C237.845 60.9807 237.754 61.501 237.767 62.0238L237.757 62.0132Z" fill="black"/>
<path opacity="0.25" d="M221.899 71.6893C222.545 73.7546 228.159 78.5709 228.159 78.5709C228.159 78.5709 230.027 71.4141 229.376 69.3488C229.038 68.3919 228.342 67.6034 227.435 67.1493C226.527 66.6952 225.479 66.611 224.511 66.9143C223.542 67.2176 222.73 67.8849 222.243 68.7756C221.757 69.6662 221.636 70.7108 221.904 71.6893L221.899 71.6893Z" fill="black"/>
<path opacity="0.25" d="M207.791 83.209C208.08 85.3437 212.798 91.0459 212.798 91.0459C212.798 91.0459 215.842 84.3081 215.554 82.1653C215.497 81.6462 215.336 81.1437 215.082 80.6875C214.828 80.2312 214.485 79.8304 214.073 79.5087C213.662 79.1869 213.19 78.9507 212.686 78.8139C212.182 78.677 211.656 78.6424 211.138 78.712C210.621 78.7816 210.122 78.954 209.672 79.2191C209.222 79.4842 208.83 79.8366 208.518 80.2556C208.206 80.6746 207.981 81.1518 207.856 81.659C207.732 82.1662 207.71 82.6932 207.791 83.209Z" fill="black"/>
<path d="M207.91 98.1761C207.91 98.1761 209.686 79.8601 220.268 70.12C224.732 66.0607 227.76 60.664 228.897 54.7389C229.415 51.9222 229.673 49.0639 229.668 46.2" stroke="#535461" stroke-width="2" stroke-miterlimit="10"/>
<path d="M236.302 40.0199C235.501 42.0266 229.513 46.3817 229.513 46.3817C229.513 46.3817 228.227 39.0996 229.035 37.093C229.425 36.1294 230.181 35.3599 231.137 34.9538C232.094 34.5477 233.172 34.5381 234.136 34.9273C235.099 35.3165 235.869 36.0726 236.275 37.0291C236.681 37.9857 236.691 39.0644 236.302 40.0279L236.302 40.0199Z" fill="#F25670"/>
<path d="M237.826 53.554C236.057 54.7975 228.673 55.2061 228.673 55.2061C228.673 55.2061 231.549 48.3909 233.318 47.1473C233.738 46.8333 234.216 46.6066 234.725 46.4808C235.234 46.3549 235.763 46.3324 236.28 46.4146C236.798 46.4968 237.294 46.682 237.738 46.9593C238.183 47.2366 238.567 47.6003 238.869 48.0288C239.171 48.4574 239.383 48.9421 239.494 49.4543C239.605 49.9665 239.612 50.4957 239.515 51.0107C239.418 51.5256 239.218 52.0158 238.928 52.4522C238.638 52.8886 238.263 53.2624 237.826 53.5513L237.826 53.554Z" fill="#F25670"/>
<path d="M229.912 72.4415C227.756 72.623 221.176 69.2398 221.176 69.2398C221.176 69.2398 227.099 64.81 229.255 64.6284C230.291 64.5413 231.318 64.8691 232.112 65.5396C232.906 66.2102 233.4 67.1685 233.488 68.2039C233.575 69.2393 233.247 70.2668 232.576 71.0605C231.906 71.8542 230.947 72.3491 229.912 72.4362L229.912 72.4415Z" fill="#F25670"/>
<path d="M220.704 85.3808C218.609 85.9145 211.554 83.7081 211.554 83.7081C211.554 83.7081 216.642 78.3417 218.737 77.7973C219.743 77.5364 220.811 77.6858 221.706 78.2124C222.602 78.7391 223.251 79.5999 223.512 80.6055C223.773 81.6112 223.624 82.6792 223.097 83.5748C222.57 84.4703 221.71 85.1199 220.704 85.3808Z" fill="#F25670"/>
<path d="M220.889 52.5197C221.765 54.497 227.886 58.6567 227.886 58.6567C227.886 58.6567 228.927 51.3346 228.051 49.3573C227.615 48.4323 226.834 47.7145 225.876 47.3573C224.918 47.0001 223.858 47.032 222.922 47.4459C221.987 47.8599 221.251 48.6233 220.871 49.5728C220.491 50.5224 220.498 51.5829 220.889 52.5277L220.889 52.5197Z" fill="#F25670"/>
<path d="M210.312 67.7886C211.74 69.4136 218.822 71.5427 218.822 71.5427C218.822 71.5427 217.626 64.2447 216.199 62.6197C215.862 62.2249 215.45 61.901 214.986 61.6669C214.523 61.4328 214.018 61.293 213.5 61.2558C212.983 61.2185 212.463 61.2846 211.971 61.45C211.479 61.6154 211.025 61.877 210.635 62.2195C210.245 62.562 209.927 62.9785 209.699 63.445C209.471 63.9114 209.339 64.4185 209.309 64.9366C209.279 65.4548 209.352 65.9738 209.524 66.4634C209.697 66.953 209.965 67.4034 210.312 67.7886Z" fill="#F25670"/>
<path d="M202.07 84.045C203.202 85.8861 209.822 89.1813 209.822 89.1813C209.822 89.1813 209.878 81.7872 208.755 79.9433C208.195 79.092 207.326 78.492 206.332 78.2705C205.338 78.0491 204.297 78.2236 203.429 78.7572C202.561 79.2907 201.935 80.1412 201.684 81.1284C201.433 82.1155 201.576 83.1617 202.084 84.045L202.07 84.045Z" fill="#F25670"/>
<path d="M194.298 26.4475C194.741 24.8224 195.274 23.1893 195.648 21.5429C195.199 23.1893 194.663 24.8278 194.298 26.4475Z" fill="url(#paint0_linear)"/>
<path d="M192.313 42.1005C192.276 42.0365 192.249 41.9724 192.22 41.9137C192.22 41.887 192.193 41.8657 192.182 41.839C192.124 41.8665 192.064 41.8905 192.004 41.9111C191.886 41.9564 191.766 41.9991 191.643 42.0338C191.521 42.0685 191.47 42.0872 191.376 42.1086C191.299 42.1352 191.22 42.1558 191.139 42.1699L191.16 42.218C191.259 42.1966 191.355 42.1779 191.454 42.1512L191.481 42.4821C191.593 42.4821 191.697 42.4661 191.798 42.4661C191.846 42.4635 191.894 42.4635 191.942 42.4661C192.15 42.4661 192.332 42.4661 192.476 42.4661C192.42 42.346 192.361 42.2206 192.313 42.1005ZM246.485 128.322C245.231 126.633 242.727 108.504 242.727 108.504C242.727 108.504 237.804 95.6134 239.146 90.4687C240.488 85.324 235.478 72.1609 235.478 72.1609C235.478 72.1609 232.17 70.7228 231.991 68.5881C231.991 68.5881 218.48 64.3192 217.848 61.1172C217.335 58.4915 208.957 56.6079 205.947 56.013C205.028 52.3093 204.105 48.8537 203.425 46.9672C203.24 46.3802 203.067 45.8732 202.907 45.4729C201.757 42.5377 198.202 42.271 195.625 42.506C195.513 42.0057 195.305 41.5318 195.013 41.1104C194.971 40.9656 194.886 40.8365 194.771 40.7395C194.715 40.6924 194.656 40.6496 194.594 40.6114C194.548 40.525 194.486 40.4473 194.413 40.382C194.34 40.316 194.259 40.2587 194.173 40.2112C194.111 40.1777 194.047 40.1482 193.981 40.1232C193.826 40.0643 193.666 40.0205 193.503 39.9924C193.313 39.9533 193.12 39.9284 192.927 39.9177C193.398 39.7117 193.818 39.4047 194.157 39.0184C194.388 38.7473 194.559 38.431 194.661 38.0898C194.746 37.8061 194.783 37.5105 194.773 37.2146C194.704 37.3365 194.624 37.4517 194.533 37.5588C194.645 36.3767 194.021 35.1759 193.663 33.9992C193.23 32.4672 193.149 30.857 193.428 29.2895C193.785 26.9252 194.671 24.5343 195.271 22.1274C195.273 22.1141 195.273 22.1007 195.271 22.0874C195.586 20.892 195.781 19.6683 195.853 18.4343C195.957 15.9447 195.319 13.4604 194.294 11.1923C193.384 9.18304 192.042 7.20581 189.987 6.38937C188.461 5.77303 186.751 5.87183 185.107 5.7705C181.419 5.54117 177.902 4.24448 174.396 3.06519C170.889 1.88591 167.282 0.81336 163.591 1.01898C159.901 1.22461 156.104 3.00459 154.42 6.27079C153.887 7.29014 153.58 8.42423 152.942 9.38221C151.747 11.1888 149.607 12.0934 147.822 13.3397C146.036 14.5859 144.465 16.3551 143.819 18.4658C143.467 19.603 143.417 20.8126 143.675 21.9748C143.733 22.2373 143.808 22.4957 143.899 22.7486C144.153 23.4537 144.548 24.0994 145.06 24.6458C145.447 25.0497 145.891 25.3941 146.378 25.6678C146.991 26.0071 147.646 26.262 148.326 26.4255C148.302 26.5056 148.278 26.5909 148.252 26.6737C148.209 26.8098 148.172 26.9405 148.132 27.0873C148.044 27.4155 147.961 27.749 147.892 28.0853C147.889 28.1092 147.889 28.1334 147.892 28.1573C147.564 29.6751 147.399 31.2236 147.401 32.7763C147.4 33.5107 147.438 34.2446 147.513 34.9751C148.581 45.8034 157.52 54.3446 168.565 54.8992C168.944 54.9178 169.325 54.9285 169.712 54.9285C169.888 54.9285 170.062 54.9285 170.246 54.9285C170.419 55.1579 170.59 55.3927 170.753 55.6222C170.916 55.8517 171.065 56.0865 171.207 56.316L170.82 55.9157L170.433 55.5609C170.328 55.7048 170.211 55.8396 170.083 55.9638C169.831 55.8751 169.573 55.802 169.312 55.745C168.205 55.4996 166.518 55.4089 164.298 56.0788C162.257 56.6899 159.762 57.9469 156.843 60.3352L142.618 68.8747L134.922 73.5554L132.15 80.3333C132.15 80.3333 130.066 88.3866 127.748 97.614C127.657 97.6407 127.569 97.6674 127.481 97.6994C127.293 97.6781 127.105 97.6674 126.915 97.6674C125.57 97.6644 124.276 98.1828 123.305 99.1138C122.333 100.045 121.761 101.316 121.707 102.66C117.096 108.264 116.835 113.868 117.918 116.44C118.017 116.681 118.14 116.911 118.287 117.126C118.997 118.15 120.323 120.792 121.668 123.607C121.633 123.839 121.612 124.034 121.601 124.181C121.599 124.229 121.599 124.277 121.601 124.325C121.601 124.325 122.402 136.416 119.734 139.882C119.15 140.637 119.238 141.63 119.734 142.729C121.522 146.684 128.591 151.964 128.591 151.964C128.591 151.964 137.068 151.918 141.791 151.403C141.778 151.878 141.767 152.35 141.757 152.812C141.65 157.476 141.65 161.386 141.65 161.386L141.475 166.277C141.475 166.277 139.874 176.585 139.074 179.427C138.569 181.209 139.152 197.713 139.659 209.847L223.186 209.843C224.167 202.665 222.781 180.856 222.781 180.856C222.781 180.856 221.466 175.218 221.417 170.303C221.415 170.297 221.413 170.291 221.413 170.285C221.413 170.279 221.415 170.273 221.417 170.268C221.417 169.838 221.417 169.42 221.433 169.009L222.039 168.987L223.128 168.95L223.227 168.95C223.227 168.95 223.253 168.848 223.315 168.683C223.459 168.271 223.655 167.879 223.899 167.517C224.363 166.831 225.089 166.159 226.18 166.113C226.783 166.089 227.717 165.601 228.771 164.88C228.778 164.882 228.786 164.882 228.793 164.88C231.629 162.962 235.378 159.42 236.288 158.839C237.539 158.038 243.532 152.701 243.532 152.701C243.532 152.701 244.426 151.57 245.379 150.206L245.414 150.158C246.598 148.45 247.858 146.409 247.548 145.766C247.014 144.613 247.905 141.856 247.905 141.856C250.688 136.762 247.74 130.011 246.485 128.322ZM194.883 46.2498C194.908 46.3294 194.925 46.4118 194.931 46.4953C194.864 46.4072 194.798 46.3138 194.731 46.2284L194.667 46.143L194.621 46.079L194.723 45.9402C194.723 45.9402 194.723 45.9402 194.723 45.9589C194.793 46.0454 194.847 46.144 194.883 46.2498ZM193.986 43.8856C193.695 43.9443 193.466 43.9977 193.316 44.0377C193.127 43.7015 192.946 43.3653 192.783 43.0238C193.211 43.2719 193.614 43.5605 193.986 43.8856ZM193.485 44.3072C193.484 44.3019 193.484 44.2965 193.485 44.2912L193.506 44.3072C193.615 44.3793 193.722 44.4487 193.821 44.5207C193.909 44.5847 193.989 44.6461 194.069 44.7101C194.016 44.8035 193.957 44.8996 193.898 44.977C193.805 44.8302 193.717 44.6888 193.631 44.542C193.578 44.4833 193.53 44.4033 193.485 44.3072ZM191.883 41.0145C192.399 40.9636 192.918 40.9636 193.434 41.0144C193.506 41.0144 193.57 41.0278 193.634 41.0384C193.779 41.0608 193.921 41.0974 194.058 41.1478C194.374 41.589 194.568 42.1051 194.621 42.6448L194.477 42.6661L194.336 42.6928C194.069 42.7382 193.802 42.7836 193.594 42.8263L193.327 42.8823C192.972 42.9597 192.767 43.0184 192.759 43.0211C192.724 42.949 192.689 42.8823 192.652 42.813C192.593 42.6982 192.532 42.5808 192.479 42.4661C192.425 42.3513 192.356 42.2206 192.3 42.1005C192.262 42.0365 192.236 41.9724 192.206 41.9137C192.206 41.887 192.18 41.8657 192.169 41.839C192.153 41.8107 192.14 41.7813 192.129 41.751C191.966 41.4201 191.817 41.0892 191.673 40.7637C191.657 40.7317 191.643 40.697 191.63 40.6649L191.833 40.6516L191.833 40.721L191.883 41.0145ZM128.225 206.549C128.203 202.576 127.915 198.277 127.114 194.242C126.773 192.527 126.42 190.811 126.063 189.124C125.972 188.703 125.884 188.286 125.796 187.87L124.974 187.98L124.899 187.98C122.657 177.41 120.314 168.098 120.314 168.098C120.314 168.098 115.66 150.329 116.199 148.912C116.268 148.728 116.18 148.231 115.982 147.503C114.856 143.463 110.154 132.331 108.51 128.526C108.51 128.51 108.497 128.491 108.491 128.478C108.225 127.84 108.032 127.41 107.974 127.285L108.36 121.606L108.382 121.265L108.432 120.539L108.411 120.52L108.432 120.184C108.432 120.184 104.371 116.854 97.4917 114.45C97.2249 114.354 96.942 114.261 96.6618 114.17C97.006 111.873 97.4621 109.279 98.0571 106.752C98.1131 106.498 98.1745 106.253 98.2385 106.005C98.2945 105.757 98.3586 105.516 98.4226 105.274C98.524 104.879 98.6334 104.489 98.7454 104.105C99.1163 103.987 99.4819 103.857 99.8421 103.718L99.9809 103.664C104.419 101.937 108.08 98.661 110.288 94.4417C112.495 90.2224 113.099 85.3461 111.988 80.7157C111.354 78.0896 110.184 75.6231 108.551 73.4711C108.428 73.3057 108.297 73.1403 108.166 72.9775C108.035 72.8147 107.878 72.6333 107.731 72.4678C108.502 70.7147 109.412 69.0469 109.487 67.3418C109.5 67.1258 109.5 66.9093 109.487 66.6934L109.487 66.6667C109.388 65.57 108.902 64.4599 107.771 63.2939C106.119 61.5835 103.768 60.7164 101.417 60.3002C99.0664 59.884 96.6702 59.8734 94.306 59.5934C90.3861 59.1239 86.5675 57.9153 82.6476 57.5445C77.8194 57.0976 72.9584 57.9259 68.5506 59.9467C65.6341 61.281 62.6802 63.6133 62.5043 66.8127C62.3603 69.4571 64.2016 71.992 63.7374 74.6044C63.2759 77.1715 60.6609 79.1915 60.8905 81.7879C60.9786 82.8019 61.499 83.7091 62.1501 84.5176C62.3743 84.7845 62.6118 85.0513 62.8573 85.3181C63.8073 86.3241 64.8533 87.29 65.3844 88.5574C65.4057 88.6108 65.4271 88.6642 65.4458 88.7175C65.8968 89.969 65.694 91.5514 64.5787 92.2692C64.5849 92.274 64.5895 92.2805 64.592 92.2879C64.608 92.3093 64.624 92.3253 64.6374 92.3466C64.639 92.3423 64.639 92.3376 64.6374 92.3333C65.0329 92.8021 65.566 93.1345 66.1611 93.2831L66.3879 93.3525C66.2038 93.5527 66.0304 93.7608 65.8542 93.9796L65.7395 94.1317C65.4455 94.5271 65.178 94.9417 64.939 95.3726C64.803 95.6127 64.6722 95.8529 64.5628 96.093C64.1971 96.8251 63.9323 97.6034 63.7758 98.4066C63.4903 100.173 63.8933 102.014 63.4611 103.743C62.9275 105.878 61.2385 107.517 60.2859 109.499C58.4823 113.235 59.5045 117.619 59.8675 121.745C60.3614 127.348 59.5611 132.976 58.7635 138.542C58.3403 141.502 57.917 144.465 57.4937 147.431C56.4267 154.874 55.3596 162.317 54.2926 169.76C53.9031 172.487 53.4416 175.364 51.6245 177.469L51.6432 177.469C51.6432 177.469 51.6432 177.485 51.6245 177.491C52.17 177.729 52.7502 177.879 53.343 177.933C55.7152 178.171 58.2288 177.023 60.3635 175.769C62.054 174.792 63.655 173.668 65.1478 172.409C64.929 173.21 64.6942 174.082 64.4434 175.022C64.4442 175.031 64.4442 175.04 64.4434 175.048C61.4313 186.523 56.5863 207.558 56.5863 207.558C56.5863 207.558 56.1461 208.473 55.5751 209.837L130.824 209.834C129.943 208.766 129.124 207.744 128.484 206.92L128.225 206.549ZM72.5042 100.456C72.5229 100.424 72.5362 100.394 72.5549 100.365C72.5549 100.45 72.5549 100.533 72.5549 100.613C72.5549 100.693 72.5549 100.765 72.5549 100.84C72.5549 100.915 72.5549 100.907 72.5549 100.944C72.5549 100.981 72.5549 100.944 72.5549 100.944C72.5549 101.053 72.5309 101.163 72.5122 101.272C72.5122 101.272 72.5122 101.285 72.5122 101.296L72.7791 101.395L73.0886 101.523C74.9174 102.245 76.7693 102.899 78.6443 103.484C78.8364 103.545 79.0312 103.604 79.226 103.66L79.2661 103.991C79.3141 104.33 79.3595 104.674 79.4022 105.018C79.4022 105.018 79.4022 105.034 79.4022 105.045C79.5223 105.998 79.6398 106.947 79.7439 107.876C79.7439 107.876 74.8446 106.008 74.9061 108.845C74.9033 108.896 74.9033 108.946 74.9061 108.997C74.9007 109.065 74.9007 109.132 74.9061 109.2C74.9516 111.409 75.6427 112.719 75.7815 113.392C75.7732 113.42 75.7586 113.445 75.7388 113.467C75.6205 113.724 75.5797 114.011 75.6215 114.291C75.6168 114.768 75.6544 115.245 75.7336 115.716C75.5895 115.804 75.4481 115.892 75.3067 115.983C75.1999 116.05 75.0985 116.124 74.9945 116.199C74.3398 113.928 73.4833 111.721 72.4352 109.603C71.7013 108.093 70.8767 106.518 70.8847 104.861C70.8846 104.754 70.8846 104.645 70.898 104.536C70.9277 104.055 71.0192 103.581 71.1701 103.124C71.2315 102.951 71.2982 102.78 71.3729 102.612C71.5472 102.212 71.7423 101.822 71.9572 101.443C72.096 101.192 72.2427 100.944 72.3841 100.693C72.4295 100.618 72.4722 100.541 72.5149 100.466L72.5042 100.456ZM192.313 42.1005C192.276 42.0365 192.249 41.9724 192.22 41.9137C192.22 41.887 192.193 41.8657 192.182 41.839C192.124 41.8665 192.064 41.8905 192.004 41.9111C191.886 41.9564 191.766 41.9991 191.643 42.0338C191.521 42.0685 191.47 42.0872 191.376 42.1086L191.139 42.1699L191.16 42.218C191.259 42.1966 191.355 42.1779 191.454 42.1512L191.481 42.4821C191.593 42.4821 191.697 42.4661 191.798 42.4661L191.942 42.4661C192.15 42.4661 192.332 42.4661 192.476 42.4661C192.42 42.346 192.361 42.2206 192.313 42.1005Z" fill="url(#paint1_linear)"/>
<path d="M134.01 81.2967L132.409 82.0039C132.409 82.0039 121.975 122.548 121.975 125.825C121.975 129.102 144.105 147.334 144.105 147.334L147.557 124.028C147.557 124.028 142.597 70.5827 134.01 81.2967Z" fill="#E8F5FF"/>
<path d="M182.55 68.3981L173.304 63.574C172.786 61.3663 171.867 59.2725 170.593 57.3967C169.24 55.4435 167.441 53.525 165.2 52.5244C159.535 49.9844 189.161 36.6491 189.161 36.6491C189.628 38.2509 190.178 39.8273 190.808 41.3721C192.334 45.1398 194.867 50.0122 198.13 51.3997C203.678 53.761 182.55 68.3981 182.55 68.3981Z" fill="#A0616A"/>
<path opacity="0.1" d="M190.808 41.3721C189.542 45.8244 186.91 49.7665 183.283 52.6419C179.655 55.5172 175.216 57.1805 170.593 57.3967C169.24 55.4435 167.441 53.525 165.2 52.5244C159.535 49.9844 189.161 36.6491 189.161 36.6491C189.628 38.2509 190.178 39.8273 190.808 41.3721Z" fill="black"/>
<path d="M191.64 34.6398C191.641 39.0063 190.348 43.2751 187.923 46.9063C185.498 50.5375 182.05 53.3679 178.016 55.0397C173.983 56.7115 169.544 57.1494 165.261 56.2982C160.978 55.447 157.044 53.3448 153.956 50.2575C150.868 47.1703 148.765 43.2366 147.913 38.954C147.061 34.6715 147.498 30.2324 149.169 26.1983C150.84 22.1641 153.67 18.7161 157.3 16.2904C160.931 13.8646 165.2 12.57 169.566 12.5703C172.468 12.5568 175.345 13.1184 178.028 14.2226C180.712 15.3268 183.151 16.9519 185.203 19.0039C187.256 21.0558 188.881 23.4941 189.986 26.1778C191.091 28.8616 191.653 31.7376 191.64 34.6398Z" fill="#A0616A"/>
<path d="M194.828 65.5636L188.808 79.6104L183.499 88.934L166.501 88.9347L161.542 76.1879L163.551 62.9686L176.533 62.968L184.914 62.4954L187.745 61.5507L189.571 62.5859L194.828 65.5636Z" fill="#575A89"/>
<path opacity="0.1" d="M192.754 46.8397C192.754 46.8397 196.508 47.6401 193.146 50.3967C189.784 53.1533 178.185 61.9195 178.185 61.9195C178.185 61.9195 182.26 65.5483 181.416 69.7991L194.916 62.2737L197.317 50.2337C197.317 50.2337 197.586 46.6154 192.754 46.8397Z" fill="black"/>
<path opacity="0.1" d="M180.84 61.9192L172.253 63.3365C172.253 63.3365 174.025 69.8873 173.139 71.7473C173.112 71.8051 173.09 71.8648 173.072 71.926L169.569 81.3964L172.195 88.8331L181.283 76.438L178.185 71.747C178.185 71.747 181.459 67.4081 183.407 65.903C185.355 64.398 180.84 61.9192 180.84 61.9192Z" fill="black"/>
<path d="M180.84 61.5537L172.253 62.9683C172.253 62.9683 174.025 69.5192 173.139 71.3791C173.112 71.4369 173.09 71.4967 173.072 71.5579L169.569 81.0282L172.195 88.4649L181.283 76.0618L178.185 71.3709C178.185 71.3709 181.459 67.0319 183.407 65.5269C185.355 64.0218 180.84 61.5537 180.84 61.5537Z" fill="#DCE6F2"/>
<path d="M193.114 46.1324C193.114 46.1324 196.868 46.9328 193.504 49.6894C190.139 52.446 178.185 61.9193 178.185 61.9193C178.185 61.9193 182.612 64.841 181.771 69.0892L195.271 61.5664L197.672 49.5264C197.672 49.5264 197.938 45.9081 193.114 46.1324Z" fill="#575A89"/>
<path opacity="0.1" d="M171.183 58.232C171.183 58.232 172.002 59.7636 175.618 62.5253C175.618 62.5253 169.598 65.7276 171.901 70.2291L162.692 67.8279L161.275 63.4011L171.183 58.232Z" fill="black"/>
<path d="M170.828 57.8797C170.828 57.8797 171.647 59.4113 175.263 62.173C175.263 62.173 169.243 65.3593 171.546 69.8742L162.34 67.473L160.923 63.0488L170.828 57.8797Z" fill="#575A89"/>
<path opacity="0.1" d="M194.828 65.5639L188.808 79.6107L183.509 88.9343L166.501 88.935L161.542 76.1883L163.549 62.9689L167.159 62.9687C167.1 66.0534 168.227 69.6771 168.155 71.0246C168.032 73.2394 171.459 85.1884 171.459 85.1884C171.459 85.1884 178.628 73.5912 181.459 72.5584C183.239 71.9099 187.009 66.5142 189.568 62.5862L194.828 65.5639Z" fill="black"/>
<path d="M218.545 139.48L217.934 140.249C217.934 140.249 222.362 162.468 221.137 167.514C220.929 168.424 220.81 169.351 220.782 170.284L220.782 170.324C220.566 175.458 222.117 182.121 222.117 182.121C222.117 182.121 223.356 201.76 222.652 209.838L139.766 209.841C139.28 197.897 138.756 182.423 139.231 180.708C140.031 177.876 141.632 167.606 141.632 167.606L141.808 162.738C141.808 162.738 141.808 158.034 141.952 152.793C142.013 150.437 142.103 147.963 142.234 145.77C142.402 143.011 142.637 140.687 142.96 139.545C143.158 138.679 143.273 137.796 143.301 136.908C143.301 136.826 143.301 136.74 143.317 136.655C143.317 136.388 143.344 136.1 143.354 135.804C143.354 135.721 143.354 135.638 143.354 135.537C143.405 133.818 143.386 131.78 143.33 129.666C143.33 129.551 143.33 129.434 143.33 129.317C143.285 127.732 143.218 126.115 143.143 124.578C142.911 119.774 142.609 115.713 142.609 115.713L132.428 81.9849L135.171 75.2284L142.783 70.5637L156.859 62.0643C163.724 56.4203 168.245 57.0979 169.968 57.7169C170.136 57.774 170.3 57.8408 170.459 57.917C170.513 57.9437 170.555 57.965 170.596 57.989C170.65 58.015 170.703 58.0453 170.753 58.0797C170.281 58.3069 169.871 58.6447 169.558 59.0644C169.205 59.5421 168.953 60.087 168.818 60.6655C168.728 61.0241 168.665 61.3889 168.629 61.7569C168.594 62.1438 168.581 62.5441 168.581 62.947C168.6 63.8306 168.676 64.7121 168.808 65.5861C168.808 65.6021 168.808 65.6234 168.808 65.6448C168.896 66.2692 169.006 66.8802 169.112 67.4539C169.111 67.4637 169.111 67.4735 169.112 67.4833C169.235 68.153 169.358 68.7721 169.441 69.3058C169.457 69.4018 169.47 69.4899 169.483 69.5726C169.542 69.9253 169.57 70.2825 169.566 70.64C169.596 71.5033 169.712 72.3614 169.913 73.2016C169.982 73.5539 170.063 73.9301 170.151 74.3224C170.271 74.856 170.401 75.4377 170.543 76.0301C170.62 76.3557 170.703 76.6919 170.788 77.0254C170.82 77.1588 170.855 77.2923 170.887 77.4283L170.941 77.6391C171.509 79.8993 172.126 82.1487 172.505 83.5096C172.729 84.3101 172.87 84.8037 172.87 84.8037C172.87 84.8037 176.888 78.306 180.096 74.6074C180.144 74.5541 180.186 74.5034 180.232 74.4554C180.549 74.0898 180.862 73.7562 181.16 73.4627C181.814 72.8115 182.401 72.3472 182.873 72.1764C182.974 72.1395 183.071 72.0939 183.164 72.0403C184.477 71.2958 186.596 68.5926 188.578 65.7613C188.773 65.4945 188.962 65.2036 189.155 64.9288C189.595 64.2937 190.022 63.6559 190.425 63.0448C190.734 62.5778 191.03 62.1242 191.31 61.6919C192.645 59.6158 193.584 58.0681 193.584 58.0681L195.436 57.9853L195.759 57.9693L195.975 57.9693L204.383 57.5793C204.383 57.5793 204.746 57.6407 205.343 57.7608C205.375 57.7608 205.408 57.7607 205.442 57.7821C208.425 58.3744 216.714 60.2499 217.221 62.8516C217.84 66.0376 231.209 70.2878 231.209 70.2878C231.385 72.4225 234.659 73.8286 234.659 73.8286C234.659 73.8286 239.618 86.9303 238.292 92.0644C236.982 97.1344 241.703 109.676 241.828 110.028L240.924 111.17L218.545 139.48Z" fill="#E8F5FF"/>
<path opacity="0.1" d="M192.751 45.9082C192.751 45.9082 200.935 43.5864 202.795 48.3654C204.655 53.1444 208.816 72.4448 208.816 72.4448C208.816 72.4448 198.014 74.4813 195.183 72.4454C193.522 71.2371 191.467 70.6998 189.427 70.9407L183.319 75.101L181.515 74.5674C181.515 74.5674 191.286 60.0402 193.41 55.1035C195.534 50.1669 196.252 47.9601 192.751 45.9082Z" fill="black"/>
<path d="M192.396 44.8408C192.396 44.8408 200.585 42.519 202.453 47.298C204.321 52.0771 208.474 71.3774 208.474 71.3774C208.474 71.3774 197.675 73.4139 194.841 71.378C193.182 70.1697 191.127 69.6323 189.088 69.8733L182.975 74.0336L181.171 73.5C181.171 73.5 190.942 58.9728 193.066 54.0361C195.19 49.0995 195.897 46.898 192.396 44.8408Z" fill="#E8F5FF"/>
<path opacity="0.1" d="M137.464 121.84C137.464 121.84 143.573 123.345 144.725 126.798C145.878 130.251 140.211 130.339 140.211 130.339C140.211 130.339 136.757 124.231 137.464 121.84Z" fill="black"/>
<path opacity="0.1" d="M160.216 147.333C160.216 147.333 145.259 177.964 148.712 180.886C152.165 183.808 160.216 147.333 160.216 147.333Z" fill="black"/>
<path opacity="0.1" d="M180.842 124.76C180.842 124.76 192.795 154.512 190.405 159.107C188.014 163.702 195.539 159.107 195.539 159.107L180.842 124.76Z" fill="black"/>
<path d="M197.486 154.149C197.486 154.149 157.119 156.099 168.895 168.669C180.671 181.24 204.836 169.201 204.836 169.201L197.486 154.149Z" fill="#A0616A"/>
<path opacity="0.1" d="M191.64 34.6397C191.644 37.535 191.075 40.4024 189.967 43.0773C189.596 43.12 189.226 43.1467 188.868 43.1627C188.334 41.9913 188.62 40.6384 188.63 39.3496C188.641 38.0607 188.166 36.5451 186.925 36.1983C184.451 35.5019 182.744 40.1263 180.305 39.2912C178.437 38.6562 178.925 35.8224 177.85 34.1867C176.999 32.8925 175.293 32.527 173.967 31.7159C171.147 29.9842 171.232 27.2144 169.922 24.5941C168.55 21.8484 165.652 22.6597 163.136 24.2795C161.225 25.5124 159.576 27.1642 157.532 28.1463C155.763 29.0002 153.775 29.3098 151.814 29.3553C150.607 29.4021 149.399 29.2746 148.228 28.9765C149.605 23.7981 152.818 19.2974 157.269 16.3137C161.72 13.33 167.104 12.0669 172.418 12.7601C177.731 13.4533 182.611 16.0553 186.147 20.0811C189.683 24.1068 191.635 29.2813 191.637 34.6397L191.64 34.6397Z" fill="black"/>
<path d="M163.144 23.5724C161.231 24.8053 159.584 26.4544 157.54 27.4418C155.771 28.2931 153.783 28.6027 151.822 28.6482C149.42 28.7016 146.835 28.2801 145.194 26.5457C143.686 24.9448 143.326 22.4818 143.963 20.3818C144.601 18.2817 146.13 16.5392 147.926 15.277C149.721 14.0147 151.805 13.1421 152.995 11.3355C153.625 10.3802 153.929 9.25412 154.452 8.23743C156.125 4.98458 159.887 3.22327 163.525 3.00431C167.162 2.78535 170.767 3.86857 174.23 5.04252C177.694 6.21647 181.184 7.50783 184.84 7.7505C186.468 7.85183 188.159 7.75036 189.67 8.3667C191.7 9.19115 193.032 11.163 193.939 13.1696C194.956 15.4324 195.589 17.9033 195.482 20.3743C195.258 25.6497 191.773 30.8266 193.305 35.8805C193.711 37.228 194.472 38.6102 194.066 39.9577C193.474 41.9244 190.936 42.3728 188.884 42.4663C188.35 41.2949 188.636 39.9393 188.646 38.6531C188.657 37.367 188.182 35.8487 186.944 35.5018C184.467 34.8108 182.76 39.4272 180.326 38.5948C178.472 37.9571 178.952 35.1259 177.874 33.4902C177.023 32.1934 175.315 31.8306 173.991 31.0194C171.171 29.2878 171.256 26.518 169.946 23.8976C168.563 21.1386 165.663 21.9499 163.144 23.5724Z" fill="#2F2E41"/>
<path d="M124.005 125.115L121.969 125.825C121.969 125.825 122.77 137.864 120.102 141.317C117.434 144.77 128.866 153.354 128.866 153.354C128.866 153.354 144.535 153.265 144.977 152.019C145.42 150.773 144.176 129.711 144.176 129.711C144.176 129.711 135.765 126.435 136.472 121.213C136.472 121.213 133.905 133.517 130.1 132.986C126.295 132.455 121.975 129.277 124.005 125.115Z" fill="#E8F5FF"/>
<path opacity="0.1" d="M130.797 136.712C133.764 136.711 136.168 134.512 136.168 131.799C136.168 129.086 133.763 126.886 130.797 126.886C127.83 126.887 125.425 129.086 125.425 131.799C125.425 134.512 127.83 136.712 130.797 136.712Z" fill="black"/>
<path d="M136.67 125.469C136.67 125.469 135.601 92.8932 126.31 100.152C117.019 107.41 116.928 116.09 118.698 118.655C120.467 121.219 126.14 134.056 126.14 134.056C127.028 134.571 128.024 134.867 129.049 134.922C130.073 134.977 131.095 134.788 132.033 134.372C132.97 133.955 133.795 133.322 134.441 132.525C135.086 131.728 135.534 130.79 135.747 129.787L136.67 125.469Z" fill="#A0616A"/>
<path opacity="0.1" d="M194.627 42.9516C194.583 42.8085 194.5 42.6807 194.386 42.5834C193.927 42.1645 192.94 42.0177 191.451 42.1459L191.513 42.8503C193.498 42.6795 193.89 43.0744 193.941 43.1411L193.941 43.2078L194.002 43.2959C194.25 43.6285 194.425 44.0092 194.517 44.4136C194.609 44.8179 194.615 45.237 194.536 45.644C194.101 47.8188 191.43 49.5507 191.403 49.5694L191.339 49.6068L191.299 49.6681C190.147 51.3786 183.628 56.206 181.923 57.4549L181.774 57.2842C181.01 57.946 174.302 63.8194 173.939 66.0689C173.705 67.4805 172.114 68.0276 171.538 68.1797C170.93 67.7181 168.955 66.1465 167.927 64.3854C166.964 62.7283 170.841 59.4941 171.183 58.2319L170.649 57.6849C170.593 57.8877 165.614 62.5416 166.999 64.9191C168.109 66.8269 170.137 68.4599 170.847 68.9989C170.62 71.0589 169.209 83.1549 167.04 86.0208C164.345 89.5833 162.08 107.536 162.331 113.804C162.553 119.373 161.099 129.892 156.243 134.41C155.402 135.227 154.388 135.843 153.276 136.212C152.164 136.582 150.982 136.696 149.82 136.545L149.761 136.545L149.703 136.545C149.633 136.545 142.589 137.266 136.67 132.276C131.827 128.202 129.083 121.552 128.512 112.506L128.394 112.506L128.346 109.873C129.659 109.668 130.842 108.962 131.646 107.903C132.449 106.844 132.811 105.515 132.655 104.196C132.5 102.876 131.838 101.668 130.811 100.825C129.783 99.9824 128.468 99.571 127.143 99.6772C125.819 99.7834 124.587 100.399 123.706 101.395C122.826 102.39 122.365 103.688 122.422 105.016C122.479 106.344 123.048 107.598 124.01 108.515C124.971 109.432 126.251 109.941 127.58 109.934L127.639 109.934L127.687 112.552L127.453 112.568C128.04 121.907 130.922 128.816 135.992 133.082C139.846 136.275 144.768 137.886 149.764 137.588C150.119 137.627 150.475 137.647 150.831 137.647C153.121 137.659 155.325 136.773 156.969 135.179C162.084 130.415 163.639 119.509 163.396 113.751C163.129 107.109 165.506 89.802 167.891 86.6505C170.228 83.5577 171.645 71.5072 171.893 69.1723C172.739 68.9348 174.652 68.1849 174.978 66.2369C175.212 64.828 179.692 60.4863 182.449 58.082L182.366 57.9859C183.85 56.9025 188.463 53.4867 190.75 51.2932C191.46 50.6127 192.164 49.9323 192.9 49.2838C193.786 48.4993 194.912 47.2531 195.208 45.7801C195.309 45.2939 195.31 44.7921 195.21 44.3057C195.11 43.8193 194.911 43.3585 194.627 42.9516Z" fill="black"/>
<path d="M170.756 68.8307C170.644 68.7533 167.986 66.8509 166.655 64.5614C165.272 62.184 170.251 57.5327 170.305 57.3299L170.838 57.8769C170.5 59.1364 166.623 62.3734 167.586 64.0277C168.8 66.117 171.356 67.9448 171.383 67.9635L170.756 68.8307Z" fill="#353146"/>
<path d="M181.576 57.9728L181.16 57.3991C181.245 57.3377 189.626 51.2748 190.947 49.3134L190.99 49.2547L191.051 49.2147C191.078 49.196 193.749 47.4668 194.184 45.2894C194.264 44.8828 194.258 44.464 194.166 44.0599C194.074 43.6559 193.898 43.2756 193.65 42.9438L193.588 42.8531L193.588 42.7891C193.535 42.7197 193.143 42.3275 191.157 42.4983L191.096 41.7912C192.588 41.6631 193.572 41.8098 194.031 42.2287C194.146 42.327 194.23 42.4556 194.274 42.5996C194.563 43.0053 194.765 43.4658 194.869 43.9527C194.973 44.4397 194.975 44.9427 194.877 45.4308C194.581 46.9064 193.458 48.1526 192.569 48.9345C191.836 49.5829 191.128 50.2687 190.421 50.9439C187.74 53.5136 181.869 57.762 181.576 57.9728Z" fill="#E8F5FF"/>
<path d="M128.002 108.944L127.295 108.957L127.374 113.255L128.081 113.242L128.002 108.944Z" fill="#E8F5FF"/>
<path d="M127.236 109.595C130.088 109.595 132.399 107.283 132.399 104.431C132.399 101.58 130.087 99.2682 127.236 99.2683C124.384 99.2685 122.072 101.58 122.072 104.432C122.073 107.284 124.384 109.595 127.236 109.595Z" fill="#F25670"/>
<path d="M127.236 108.72C129.604 108.72 131.524 106.8 131.524 104.432C131.524 102.064 129.604 100.144 127.236 100.144C124.867 100.144 122.948 102.064 122.948 104.432C122.948 106.8 124.868 108.72 127.236 108.72Z" fill="#E8F5FF"/>
<path d="M150.495 137.303C150.139 137.304 149.782 137.285 149.428 137.247C144.432 137.541 139.511 135.931 135.656 132.741C130.586 128.471 127.709 121.571 127.116 112.224L128.183 112.157C128.755 121.203 131.498 127.855 136.344 131.927C142.263 136.903 149.305 136.196 149.374 136.196L149.433 136.196L149.492 136.196C150.654 136.345 151.836 136.231 152.948 135.862C154.061 135.492 155.075 134.876 155.917 134.061C160.771 129.543 162.225 119.024 162.003 113.455C161.736 107.182 164 89.2285 166.698 85.6687C169.059 82.5492 170.524 68.4894 170.54 68.3479L170.58 67.9477L170.975 67.8783C170.999 67.8783 173.304 67.4406 173.592 65.7168C173.966 63.4699 180.663 57.5965 181.424 56.932L182.12 57.7325C179.353 60.1342 174.873 64.4786 174.649 65.8902C174.324 67.8434 172.41 68.5907 171.567 68.8255C171.3 71.1631 169.895 83.211 167.565 86.3037C165.18 89.4552 162.803 106.763 163.07 113.404C163.3 119.163 161.761 130.071 156.646 134.832C154.999 136.43 152.79 137.317 150.495 137.303Z" fill="#353146"/>
<g opacity="0.1">
<path opacity="0.1" d="M193.913 28.3319C194.351 26.7148 194.879 25.0871 195.247 23.4487C194.807 25.0951 194.276 26.7148 193.913 28.3319Z" fill="black"/>
<path opacity="0.1" d="M189.45 41.039C188.916 39.8676 189.202 38.512 189.212 37.2258C189.223 35.9397 188.748 34.4347 187.51 34.0745C185.033 33.3835 183.326 38.0026 180.892 37.1675C179.024 36.5298 179.518 33.6986 178.44 32.0629C177.588 30.7661 175.883 30.4033 174.56 29.5921C171.736 27.8605 171.822 25.0907 170.514 22.4703C169.14 19.7219 166.245 20.5333 163.726 22.1558C161.812 23.3886 160.166 25.0404 158.122 26.0252C156.353 26.8765 154.365 27.1861 152.404 27.2315C150.016 27.2877 147.417 26.8635 145.775 25.1291C144.51 23.795 144.054 21.839 144.316 20.0058C144.27 20.1313 144.23 20.2567 144.19 20.3821C143.55 22.4822 143.924 24.9504 145.421 26.5461C147.062 28.2804 149.661 28.7019 152.049 28.6485C154.013 28.603 155.998 28.2934 157.77 27.4421C159.819 26.4547 161.466 24.8056 163.373 23.5727C165.892 21.9502 168.79 21.1389 170.162 23.8873C171.47 26.5076 171.387 29.2774 174.207 31.0091C175.542 31.8095 177.236 32.183 178.09 33.4799C179.158 35.1209 178.685 37.9467 180.543 38.5844C182.974 39.4168 184.681 34.8004 187.157 35.4915C188.396 35.8383 188.873 37.3593 188.86 38.6428C188.847 39.9263 188.569 41.2845 189.098 42.4559C191.15 42.3624 193.687 41.922 194.282 39.9474C194.364 39.664 194.402 39.3697 194.394 39.0748C193.527 40.5718 191.296 40.9562 189.45 41.039Z" fill="black"/>
</g>
<path opacity="0.1" d="M237.679 106.786L240.777 110.063C240.777 110.063 243.256 128.12 244.495 129.809C245.733 131.498 248.658 138.217 245.912 143.263C245.912 143.263 245.026 146.009 245.557 147.159C246.088 148.309 241.576 154.065 241.576 154.065C241.576 154.065 235.645 159.375 234.404 160.173C233.163 160.971 226.615 167.343 224.403 167.431C222.191 167.519 221.468 170.265 221.468 170.265L208.985 170.709C208.985 170.709 202.09 170.349 200.59 171.323C200.59 171.323 201.391 160.788 193.687 153.882L203.512 150.341C203.512 150.341 207.231 148.74 208.381 147.067C209.105 146.041 210.131 145.267 211.316 144.855C211.316 144.855 214.059 142.906 214.147 141.844C214.235 140.782 217.501 139.48 217.501 139.48L215.652 123.697L216.624 97.4928C216.624 97.4928 219.722 75.537 226.273 76.7776C232.824 78.0181 237.679 106.786 237.679 106.786Z" fill="black"/>
<path d="M238.746 106.786L241.844 110.063C241.844 110.063 244.324 128.12 245.562 129.809C246.8 131.498 249.725 138.217 246.979 143.263C246.979 143.263 246.096 146.009 246.627 147.159C247.158 148.309 242.644 154.065 242.644 154.065C242.644 154.065 236.712 159.375 235.471 160.173C234.23 160.971 227.682 167.343 225.47 167.431C223.258 167.519 222.535 170.265 222.535 170.265L210.052 170.709C210.052 170.709 203.152 170.349 201.658 171.323C201.658 171.323 202.458 160.788 194.754 153.882L204.579 150.341C204.579 150.341 208.298 148.74 209.448 147.067C210.172 146.041 211.198 145.267 212.384 144.855C212.384 144.855 215.127 142.906 215.215 141.844C215.303 140.782 218.569 139.48 218.569 139.48L216.719 123.697L217.692 97.4928C217.692 97.4928 220.789 75.537 227.34 76.7776C233.891 78.0181 238.746 106.786 238.746 106.786Z" fill="#E8F5FF"/>
<path opacity="0.1" d="M227.23 133.257C227.23 133.257 236.348 130.855 238.739 133.79C241.13 136.725 227.23 133.257 227.23 133.257Z" fill="black"/>
<path opacity="0.1" d="M225.106 137.284C228.204 139.453 237.765 139.541 237.765 139.541L225.106 137.284Z" fill="black"/>
<path opacity="0.1" d="M229.798 148.128C230.065 148.216 236.371 154.945 239.018 152.909C241.664 150.873 229.798 148.128 229.798 148.128Z" fill="black"/>
<path opacity="0.1" d="M144.876 91.6521C144.876 91.6521 146.729 104.402 145.816 109.594C144.904 114.787 148.234 121.221 148.234 121.221L144.876 91.6521Z" fill="black"/>
<path d="M103.879 96.8386C101.744 98.5118 100.186 102.472 99.0576 106.824C97.0886 114.416 96.4459 123.219 96.4459 123.219C96.4459 123.219 79.448 119.324 80.6861 117.554C81.4652 116.442 80.4188 108.058 79.546 101.979C79.0255 98.3873 78.5611 95.5989 78.5611 95.5989C78.5611 95.5989 109.723 92.2327 103.879 96.8386Z" fill="#A0616A"/>
<path opacity="0.1" d="M103.879 96.4834C101.744 98.1593 100.186 102.117 99.0576 106.469C95.671 107.497 92.0692 107.59 88.6342 106.738C85.1991 105.885 82.0587 104.119 79.546 101.626C79.0255 98.0322 78.5611 95.2437 78.5611 95.2437C78.5611 95.2437 109.723 91.8802 103.879 96.4834Z" fill="black"/>
<path d="M113.015 86.9462C113.017 91.5874 111.377 96.0796 108.385 99.6279C105.394 103.176 101.243 105.552 96.6683 106.334C92.0935 107.116 87.3894 106.255 83.3886 103.902C79.3878 101.55 76.3483 97.8577 74.808 93.4796C73.2676 89.1014 73.3258 84.3195 74.9722 79.9801C76.6185 75.6408 79.747 72.0237 83.8038 69.7692C87.8606 67.5146 92.5842 66.7679 97.1386 67.6613C101.693 68.5546 105.785 71.0303 108.689 74.6503C111.488 78.1374 113.014 82.4747 113.015 86.9462Z" fill="#A0616A"/>
<path opacity="0.1" d="M128.518 209.842L122.915 209.842L122.442 199.945L121.948 189.701C121.948 189.701 123.221 189.511 125.249 189.228L126.068 189.119L126.135 189.119C126.578 191.198 127.015 193.332 127.437 195.464C128.139 199.249 128.504 203.089 128.529 206.938C128.529 207.205 128.529 207.472 128.529 207.723C128.545 208.435 128.529 209.148 128.518 209.842Z" fill="black"/>
<path d="M127.443 209.842L57.1682 209.845C57.4723 209.154 57.6751 208.735 57.6751 208.735C57.6751 208.735 63.2964 184.137 66.1538 173.73C66.1547 173.721 66.1547 173.713 66.1538 173.704C66.5108 172.29 66.9419 170.896 67.4451 169.528C67.4777 169.434 67.5197 169.345 67.5705 169.261C68.9847 166.96 70.7564 164.481 68.2773 160.941C65.7982 157.4 66.6755 141.819 66.6755 141.819C66.6755 141.819 69.6849 128.538 72.8706 121.456C73.3541 120.359 74.0403 119.363 74.8932 118.521C75.1705 118.249 75.4665 117.998 75.779 117.768C76.0167 117.59 76.2643 117.425 76.5208 117.274L76.5715 117.242C77.9099 116.484 79.3962 116.022 80.929 115.889C82.0178 115.776 83.1169 115.806 84.1978 115.98C89.3639 116.738 93.4999 118.005 96.7875 119.448C105.697 123.363 108.395 128.608 108.449 128.718L108.47 128.763C108.828 129.598 114.058 141.809 115.942 147.506C116.431 148.989 116.698 150.033 116.591 150.318C116.057 151.733 120.664 169.437 120.664 169.437C120.664 169.437 122.799 177.976 124.934 187.985C125.027 188.401 125.115 188.818 125.201 189.239C125.583 191.056 125.962 192.908 126.327 194.757C127.036 198.568 127.401 202.435 127.419 206.312C127.458 207.52 127.466 208.696 127.443 209.842Z" fill="#F25670"/>
<path opacity="0.1" d="M80.5096 109.8C80.5096 109.8 75.661 107.932 75.7198 110.766C75.7787 113.6 76.9021 114.955 76.5472 115.369C76.1924 115.783 76.7235 118.261 76.7235 118.261C76.7235 118.261 83.2744 118.261 86.2844 119.617C89.2944 120.972 100.39 123.688 101.807 124.515C103.224 125.342 108.478 129.051 108.478 129.051L108.95 122.028C108.95 122.028 103.52 117.543 94.6097 115.243C85.6998 112.943 80.5096 109.8 80.5096 109.8Z" fill="black"/>
<path d="M80.5096 109.445C80.5096 109.445 75.661 107.578 75.7198 110.412C75.7787 113.245 76.9021 114.601 76.5472 115.014C76.1924 115.428 76.7235 117.907 76.7235 117.907C76.7235 117.907 83.2744 117.907 86.2844 119.265C89.2944 120.623 100.39 123.336 101.807 124.161C103.224 124.985 108.478 128.697 108.478 128.697L108.955 121.695C108.955 121.695 103.525 117.209 94.615 114.91C85.7051 112.61 80.5096 109.445 80.5096 109.445Z" fill="#F25670"/>
<path opacity="0.1" d="M95.1465 126.346C95.1465 126.346 104.412 136.376 103.939 139.154C103.467 141.932 95.1465 126.346 95.1465 126.346Z" fill="black"/>
<path opacity="0.1" d="M80.0985 162.581C80.0985 162.581 73.3077 168.839 71.3064 169.194C69.3051 169.549 72.8408 170.728 75.1409 169.786C77.441 168.844 82.3454 166.365 82.3454 166.365L80.0985 162.581Z" fill="black"/>
<path d="M130.202 209.842L114.365 209.842C112.151 207.921 110.056 206.141 108.722 205.071C106.587 203.358 105.047 200.837 104.065 198.809C103.843 198.347 103.651 197.915 103.488 197.523C103.197 196.847 102.94 196.157 102.72 195.455L114.447 188.49C115.095 189.041 115.704 189.636 116.27 190.272L116.411 190.435C117.062 191.203 117.636 192.076 117.687 192.791C117.746 193.624 120.062 196.844 122.429 199.937C124.831 203.083 127.291 206.09 127.454 206.293C127.454 206.293 127.859 206.845 128.521 207.694C128.988 208.307 129.565 209.044 130.202 209.842Z" fill="#FFCCD0"/>
<path opacity="0.1" d="M108.689 74.6503C108.126 75.9205 107.622 77.2387 107.547 78.653C107.337 82.7356 107.679 91.8642 103.158 93.9138C100.92 94.9225 98.5234 92.7078 96.0684 92.6546C94.3019 92.6173 92.6823 93.7381 91.6043 95.139C90.5263 96.54 89.8566 98.2024 89.0748 99.7875C88.3632 101.226 87.5435 102.609 86.6228 103.924C86.3475 104.326 86.0444 104.709 85.7155 105.068C82.9592 103.905 80.5047 102.129 78.539 99.8735C76.5734 97.6182 75.1485 94.944 74.3728 92.0547C73.5972 89.1654 73.4914 86.1371 74.0634 83.2007C74.6354 80.2642 75.8702 77.4971 77.6736 75.1101C79.477 72.7232 81.8015 70.7794 84.4699 69.4268C87.1383 68.0743 90.0803 67.3488 93.0716 67.3054C96.063 67.2621 99.0247 67.9022 101.731 69.1769C104.438 70.4516 106.817 72.3272 108.689 74.661L108.689 74.6503Z" fill="black"/>
<path d="M107.192 77.9329C106.979 82.0155 107.324 91.1441 102.801 93.191C100.562 94.1997 98.1657 91.9877 95.7108 91.9345C93.9443 91.8945 92.3273 93.018 91.2467 94.4163C90.166 95.8146 89.5017 97.4797 88.7172 99.0674C88.0053 100.506 87.1856 101.889 86.2651 103.204C85.7155 103.983 85.1071 104.765 84.2612 105.202C82.7883 105.971 81.0031 105.539 79.4234 105.045C77.3741 104.399 75.3549 103.672 73.3661 102.863C73.4117 102.562 73.4349 102.259 73.4354 101.955C73.3767 102.067 73.3127 102.171 73.2486 102.283L73.1232 102.502C72.8964 102.903 72.675 103.303 72.4722 103.714C72.3948 103.871 72.3201 104.034 72.2534 104.197C71.985 104.803 71.8166 105.448 71.7545 106.107C71.6185 107.887 72.4964 109.576 73.2757 111.177C76.2726 117.371 78.1247 124.612 75.8702 131.11C74.8937 133.936 73.202 136.447 71.9667 139.177C69.8072 144.012 69.1717 149.39 70.1448 154.595C70.7613 157.829 71.9969 161.031 71.6929 164.311C71.1594 169.954 66.2925 174.155 61.4174 177.042C58.7837 178.595 55.5604 179.977 52.7638 178.75C54.5462 176.669 55.0051 173.789 55.3892 171.073C56.4403 163.664 57.494 156.251 58.5503 148.834C58.9718 145.883 59.3924 142.932 59.8121 139.981C60.5964 134.436 61.3914 128.829 60.9001 123.25C60.5424 119.138 59.5335 114.772 61.3159 111.05C62.2577 109.078 63.9361 107.445 64.459 105.321C64.8886 103.594 64.4882 101.758 64.771 99.9997C64.9258 99.1996 65.1878 98.4241 65.5501 97.6942C66.0113 96.7036 66.6135 95.7851 67.3378 94.967C66.6227 94.7589 65.9555 94.4734 65.5499 93.8757C66.6973 93.1285 66.8707 91.4447 66.3503 90.1799C65.8299 88.9151 64.7892 87.9518 63.8525 86.9539C62.9159 85.956 62.0139 84.7926 61.8964 83.4317C61.6695 80.8407 64.2578 78.8339 64.714 76.2776C65.1755 73.6759 63.3502 71.1463 63.4968 68.5126C63.6675 65.3292 66.592 63.0155 69.4791 61.6732C73.836 59.6561 78.6488 58.8274 83.4294 59.2711C87.32 59.6391 91.0851 60.8424 94.965 61.3092C97.3052 61.576 99.6774 61.6026 102.002 62.0134C104.326 62.4242 106.655 63.2914 108.291 64.9964C112.604 69.4925 107.438 73.1938 107.192 77.9329Z" fill="#2F2E41"/>
<path opacity="0.1" d="M103.59 198.812C102.229 198.222 99.7527 198.574 95.5019 197.28C91.251 195.986 90.4316 190.137 90.4316 190.137L90.4316 190.119C90.3809 189.985 89.9859 189.115 87.3121 186.068C84.358 182.703 77.9718 165.709 77.9718 165.709C77.9718 165.709 72.3092 159.627 72.4879 157.386C72.6665 155.145 71.4815 149.181 71.5987 142.51C71.7158 135.839 84.3451 131.414 84.3451 131.414C108.662 127.103 102.937 155.138 102.289 157.262C101.64 159.386 105.005 165.123 105.005 165.123C104.53 167.621 106.954 171.487 106.954 171.487C106.954 171.487 107.541 174.908 107.661 176.207C107.668 176.267 107.681 176.327 107.701 176.384C108.091 177.608 111.266 178.718 112.558 179.393C113.916 180.103 118.284 186.299 118.284 186.299C119.226 190.848 104.945 199.409 103.59 198.812Z" fill="black"/>
<path d="M104.397 197.515L104.398 197.516C104.398 197.516 104.403 197.518 104.415 197.52C104.427 197.522 104.444 197.524 104.466 197.524C104.513 197.525 104.575 197.52 104.654 197.507C104.813 197.479 105.021 197.421 105.273 197.331C105.777 197.151 106.431 196.854 107.183 196.462C108.687 195.68 110.559 194.531 112.36 193.221C114.163 191.911 115.885 190.447 117.094 189.036C117.699 188.33 118.168 187.646 118.457 187.007C118.738 186.389 118.841 185.831 118.754 185.345L118.735 185.32C118.703 185.274 118.656 185.208 118.595 185.122C118.473 184.952 118.297 184.708 118.082 184.412C117.652 183.821 117.065 183.026 116.436 182.21C115.806 181.392 115.136 180.556 114.541 179.882C114.244 179.544 113.967 179.25 113.725 179.02C113.479 178.786 113.283 178.632 113.146 178.561C112.855 178.409 112.463 178.233 112.018 178.033C111.982 178.017 111.946 178.001 111.909 177.984C111.424 177.766 110.888 177.524 110.379 177.263C109.872 177.003 109.382 176.72 108.992 176.42C108.61 176.126 108.288 175.789 108.166 175.409C108.139 175.334 108.122 175.255 108.116 175.175M104.397 197.515L108.365 175.153M104.397 197.515C104.026 197.353 103.59 197.261 103.093 197.189C102.753 197.141 102.373 197.1 101.956 197.056C101.767 197.036 101.57 197.016 101.366 196.993C100.053 196.846 98.3882 196.613 96.2846 195.971C94.2614 195.354 93.0355 193.647 92.3111 192.05C91.9505 191.256 91.7194 190.5 91.5786 189.942C91.5082 189.663 91.4605 189.435 91.4306 189.277C91.4156 189.198 91.4051 189.136 91.3983 189.095C91.3966 189.085 91.3951 189.075 91.3938 189.067C91.3928 189.061 91.392 189.056 91.3913 189.051L91.3913 189.051L91.3913 189.008M104.397 197.515L91.3913 189.008M108.116 175.175C108.116 175.174 108.116 175.173 108.116 175.172L108.365 175.153M108.116 175.175C108.116 175.175 108.116 175.176 108.116 175.177L108.365 175.153M108.116 175.175C108.055 174.534 107.88 173.363 107.717 172.345C107.636 171.837 107.559 171.369 107.502 171.029C107.474 170.859 107.451 170.72 107.434 170.624L107.417 170.523M108.365 175.153C108.242 173.854 107.655 170.433 107.655 170.433M107.417 170.523L107.436 170.553L107.441 170.562L107.443 170.565L107.443 170.565L107.443 170.566C107.443 170.566 107.443 170.566 107.655 170.433M107.417 170.523L107.415 170.519C107.397 170.489 107.37 170.445 107.337 170.389C107.27 170.276 107.176 170.113 107.065 169.91C106.842 169.503 106.55 168.934 106.273 168.286C105.738 167.034 105.233 165.428 105.445 164.115C105.421 164.073 105.387 164.014 105.346 163.941C105.254 163.779 105.125 163.544 104.971 163.257C104.664 162.683 104.261 161.894 103.877 161.037C103.495 160.181 103.129 159.252 102.9 158.397C102.674 157.555 102.567 156.738 102.751 156.135C102.907 155.625 103.384 153.493 103.631 150.645C103.877 147.799 103.893 144.259 103.137 140.926C102.381 137.593 100.86 134.492 98.055 132.485C95.2563 130.482 91.1354 129.538 85.1109 130.602L85.0951 130.608C85.0718 130.616 85.037 130.629 84.9914 130.646C84.9002 130.679 84.766 130.729 84.5947 130.796C84.2522 130.929 83.7621 131.126 83.1732 131.384C81.9948 131.9 80.4244 132.656 78.852 133.617C77.278 134.58 75.7122 135.743 74.5352 137.069C73.3578 138.396 72.5862 139.867 72.5584 141.452C72.5001 144.77 72.7645 147.915 73.0225 150.517C73.0657 150.953 73.1088 151.374 73.1502 151.778C73.2322 152.579 73.3074 153.314 73.3633 153.965C73.4472 154.943 73.49 155.755 73.4442 156.338C73.4262 156.567 73.4825 156.868 73.6152 157.234C73.7466 157.597 73.9461 158.005 74.195 158.44C74.6928 159.31 75.3761 160.27 76.0699 161.166C76.7628 162.061 77.4617 162.887 77.9878 163.489C78.2508 163.79 78.4702 164.035 78.6239 164.205C78.7007 164.29 78.761 164.356 78.802 164.4L78.8488 164.451L78.8606 164.464L78.8636 164.467L78.8643 164.468L78.8644 164.468L78.6815 164.638M107.417 170.523L107.415 170.514L107.411 170.485L107.409 170.478L107.409 170.476L107.409 170.475L107.409 170.475L107.655 170.433M107.655 170.433L78.6815 164.638M78.6815 164.638L78.9156 164.55L78.8982 164.504L78.8645 164.468L78.6815 164.638ZM78.6815 164.638C78.9156 164.55 78.9156 164.55 78.9156 164.551M78.6815 164.638L78.9156 164.551M91.3913 189.008L91.3771 188.968M91.3913 189.008L91.3771 188.968M91.3771 188.968C91.341 188.866 91.2127 188.592 90.7696 187.972C90.3235 187.348 89.5498 186.363 88.2097 184.836L88.2097 184.836M91.3771 188.968L88.2097 184.836M88.2097 184.836C87.4962 184.023 86.5563 182.359 85.5406 180.289M88.2097 184.836L85.5406 180.289M85.5406 180.289C84.5295 178.229 83.4564 175.794 82.4743 173.461M85.5406 180.289L82.4743 173.461M82.4743 173.461C81.4925 171.128 80.6027 168.9 79.9583 167.256M82.4743 173.461L79.9583 167.256M79.9583 167.256C79.6361 166.433 79.3754 165.757 79.1952 165.286M79.9583 167.256L79.1952 165.286M79.1952 165.286C79.1051 165.051 79.0352 164.867 78.9877 164.741M79.1952 165.286L78.9877 164.741M78.9877 164.741L78.9338 164.599M78.9877 164.741L78.9338 164.599M78.9338 164.599L78.9201 164.563M78.9338 164.599L78.9201 164.563M78.9201 164.563L78.9167 164.553M78.9201 164.563L78.9167 164.553M78.9167 164.553L78.9158 164.551M78.9167 164.553L78.9158 164.551M78.9158 164.551L78.9156 164.551M78.9158 164.551L78.9156 164.551" fill="#F25670" stroke="#DA4D65" stroke-width="0.5"/>
<path opacity="0.1" d="M85.5278 144.996C85.5278 144.996 96.1512 156.203 98.9237 156.203C101.696 156.203 85.5278 144.996 85.5278 144.996Z" fill="black"/>
<path d="M104.297 197.744C102.939 197.152 100.46 197.507 96.2116 196.21C91.9634 194.913 91.1413 189.07 91.1413 189.07L91.1413 189.051C93.9564 187.183 101.086 181.907 103.896 179.978C105.873 178.625 107.487 176.637 108.432 175.319C108.822 176.543 111.997 177.653 113.291 178.328C114.647 179.035 119.018 185.234 119.018 185.234C119.936 189.786 105.655 198.347 104.297 197.744Z" fill="#F25670"/>
<g opacity="0.1">
<path opacity="0.1" d="M65.5658 93.9047C65.5791 93.9261 65.5978 93.9447 65.6138 93.9661C65.6939 93.8647 65.7766 93.7633 65.862 93.6672C65.771 93.7556 65.6719 93.8352 65.5658 93.9047Z" fill="black"/>
<path opacity="0.1" d="M71.7571 106.136C71.8691 104.655 72.6616 103.35 73.4033 102.048C72.9177 101.861 72.432 101.672 71.9517 101.475C71.9974 101.175 72.0206 100.873 72.021 100.57C71.2713 101.904 70.4548 103.217 70.3401 104.719C70.2041 106.502 71.0821 108.188 71.8613 109.789C74.8609 115.98 76.7104 123.222 74.4559 129.722C73.4767 132.545 71.7877 135.059 70.5523 137.789C68.3936 142.623 67.759 148 68.7331 153.204C69.3443 156.441 70.5826 159.641 70.2785 162.92C69.7451 168.564 64.8808 172.764 60.0031 175.649C58.0098 176.828 55.6803 177.909 53.4522 177.832C53.246 178.164 53.0159 178.48 52.7638 178.779C55.563 180.014 58.7837 178.624 61.4174 177.066C66.2978 174.183 71.1727 169.994 71.7062 164.34C72.0102 161.06 70.772 157.861 70.1581 154.624C69.1837 149.42 69.8164 144.044 71.972 139.208C73.1993 136.481 74.907 133.965 75.8755 131.142C78.13 124.641 76.2779 117.399 73.281 111.209C72.5044 109.597 71.6211 107.919 71.7571 106.136Z" fill="black"/>
<path opacity="0.1" d="M108.286 65.0284C108.023 64.7591 107.742 64.5094 107.443 64.2813C110.677 68.4759 106.007 72.0411 105.775 76.556C105.567 80.6387 105.909 89.7699 101.387 91.8141C99.1505 92.8255 96.7515 90.6109 94.2992 90.5576C92.5301 90.5203 90.9131 91.6438 89.8324 93.0421C88.7518 94.4404 88.0874 96.1055 87.3057 97.6905C86.5925 99.129 85.7719 100.512 84.8509 101.827C84.3172 102.609 83.6929 103.388 82.8443 103.828C81.3767 104.594 79.5916 104.164 78.0092 103.668C76.4704 103.184 74.9458 102.651 73.4355 102.067C73.4324 102.345 73.4092 102.623 73.3661 102.897C75.3568 103.708 77.3768 104.436 79.4262 105.08C81.0059 105.576 82.7911 106.005 84.2613 105.24C85.1072 104.799 85.7209 104.017 86.2679 103.236C87.1895 101.922 88.0093 100.54 88.72 99.1021C89.5044 97.517 90.1661 95.8492 91.2494 94.4509C92.3327 93.0526 93.9471 91.9318 95.7136 91.9691C98.1685 92.0224 100.567 94.2371 102.804 93.2256C107.326 91.1815 106.982 82.0502 107.192 77.9675C107.438 73.2204 112.604 69.5218 108.286 65.0284Z" fill="black"/>
</g>
<path opacity="0.1" d="M73.1261 102.505C72.8993 102.905 72.6778 103.305 72.475 103.716C72.3977 103.874 72.3229 104.037 72.2562 104.199C70.8579 102.79 67.4529 99.4418 65.553 98.4039C66.0149 97.4137 66.617 96.4952 67.3407 95.6767C67.3407 95.6767 71.8691 98.07 73.1261 102.505Z" fill="black"/>
<path d="M73.2515 102.286C72.2026 97.5394 67.3407 94.9699 67.3407 94.9699C66.6164 95.788 66.0142 96.7066 65.553 97.6971C67.557 98.7937 71.2502 102.471 72.4751 103.717L73.2515 102.286Z" fill="#F25670"/>
<defs>
<linearGradient id="paint0_linear" x1="194.973" y1="26.4475" x2="194.973" y2="21.5429" gradientUnits="userSpaceOnUse">
<stop stop-color="#808080" stop-opacity="0.25"/>
<stop offset="0.54" stop-color="#808080" stop-opacity="0.12"/>
<stop offset="1" stop-color="#808080" stop-opacity="0.1"/>
</linearGradient>
<linearGradient id="paint1_linear" x1="122427" y1="175711" x2="122420" y2="12247.1" gradientUnits="userSpaceOnUse">
<stop stop-color="#808080" stop-opacity="0.25"/>
<stop offset="0.54" stop-color="#808080" stop-opacity="0.12"/>
<stop offset="1" stop-color="#808080" stop-opacity="0.1"/>
</linearGradient>
</defs>
</svg>
