<svg width="881" height="596" viewBox="0 0 881 596" fill="none" xmlns="http://www.w3.org/2000/svg">
<g clip-path="url(#clip0_464:590)">
<path d="M674.514 589.26C663.235 578.476 656.384 561.439 658.18 544.854C659.977 528.269 671.105 513.023 685.54 509.501C699.975 505.979 716.43 515.728 720.815 531.684C723.227 500.922 726.008 468.871 740.462 442.675C753.549 418.954 776.217 401.981 800.784 398.945C825.35 395.908 851.216 407.377 866.537 429.318C881.859 451.258 885.61 483.156 874.879 508.346C866.974 526.902 852.411 540.712 837.152 551.947C787.844 587.946 728.706 602.586 670.619 593.172L674.514 589.26Z" fill="url(#paint0_linear_464:590)"/>
<path d="M842.244 408.012C821.973 426.695 803.377 447.59 786.724 470.395C760.663 505.963 739.574 545.841 724.192 588.64C723.066 591.762 727.546 593.121 728.66 590.034C753.828 520.476 794.006 459.169 845.52 411.72C847.834 409.588 844.538 405.898 842.244 408.012Z" fill="white"/>
<path d="M283.608 586.33C299.1 571.517 308.51 548.118 306.042 525.339C303.575 502.559 288.29 481.618 268.464 476.78C248.637 471.943 226.036 485.334 220.014 507.249C216.7 464.997 212.881 420.976 193.029 384.994C175.053 352.415 143.919 329.102 110.177 324.932C76.4344 320.761 40.908 336.513 19.8641 366.649C-1.17983 396.784 -6.33234 440.596 8.40627 475.194C19.2637 500.681 39.2669 519.649 60.2252 535.081C127.09 584.312 210.035 604.845 288.958 591.702" fill="url(#paint1_linear_464:590)"/>
<path d="M53.2316 337.386C81.0732 363.046 106.615 391.746 129.487 423.069C152.364 454.359 172.504 488.087 189.624 523.778C199.194 543.799 207.791 564.396 215.376 585.478C216.923 589.766 210.769 591.633 209.239 587.392C195.804 550.226 179.182 514.638 159.611 481.141C140.135 447.765 117.844 416.605 93.051 388.1C79.0279 371.985 64.2324 356.755 48.7314 342.478C45.5541 339.551 50.0805 334.483 53.2315 337.386L53.2316 337.386Z" fill="white"/>
<path d="M632.396 594.695H262.781V165.575C262.781 74.2765 328.423 0 409.108 0H486.069C566.754 0 632.396 74.2765 632.396 165.575V594.695Z" fill="#F2F2F2"/>
<path d="M555.435 594.696H262.781V165.575C262.7 130.592 272.49 96.4925 290.725 68.2421C291.398 67.2053 292.068 66.182 292.76 65.1699C301.58 52.0798 312.076 40.5515 323.903 30.9656C324.571 30.4156 325.241 29.8752 325.922 29.3347C335.818 21.5858 346.522 15.2512 357.792 10.4752C358.461 10.1882 359.143 9.90057 359.824 9.62473C370.016 5.50892 380.582 2.68962 391.326 1.21887C391.992 1.11591 392.676 1.03535 393.359 0.954787C403.829 -0.311915 414.388 -0.311915 424.858 0.954787C425.54 1.03535 426.224 1.1159 426.898 1.21997C437.639 2.69082 448.202 5.50978 458.391 9.62478C459.073 9.90062 459.754 10.1882 460.426 10.4758C471.556 15.1916 482.135 21.4316 491.925 29.0566C492.605 29.5854 493.286 30.1259 493.957 30.6663C500.586 36.0206 506.812 41.9855 512.573 48.5003C517.193 53.7258 521.497 59.296 525.458 65.1733C526.147 66.1821 526.818 67.2054 527.489 68.2405C545.725 96.4912 555.516 130.591 555.435 165.575V594.696Z" fill="#CCCCCC"/>
<path d="M531.638 402.766C540.586 402.766 547.84 394.558 547.84 384.432C547.84 374.307 540.586 366.099 531.638 366.099C522.69 366.099 515.436 374.307 515.436 384.432C515.436 394.558 522.69 402.766 531.638 402.766Z" fill="#F25670"/>
<path d="M602.117 581.842H589.702L583.795 527.657L602.119 527.659L602.117 581.842Z" fill="#FFB8B8"/>
<path d="M580.834 577.828H604.777V594.886H565.759C565.759 592.646 566.149 590.428 566.906 588.359C567.664 586.289 568.774 584.409 570.174 582.825C571.574 581.241 573.236 579.984 575.065 579.127C576.894 578.27 578.854 577.828 580.834 577.828Z" fill="#2F2E41"/>
<path d="M663.888 581.842H651.473L645.566 527.657L663.89 527.659L663.888 581.842Z" fill="#FFB8B8"/>
<path d="M642.605 577.828H666.548V594.886H627.53C627.53 592.646 627.92 590.428 628.678 588.359C629.435 586.289 630.546 584.409 631.946 582.825C633.346 581.241 635.007 579.984 636.836 579.127C638.665 578.27 640.626 577.828 642.605 577.828Z" fill="#2F2E41"/>
<path d="M539.838 388.064C538.945 386.575 538.352 384.883 538.099 383.106C537.846 381.329 537.941 379.511 538.377 377.781C538.812 376.05 539.578 374.448 540.619 373.088C541.661 371.729 542.954 370.644 544.406 369.91L586.609 238.291L607.375 251.114L559.189 376.895C560.116 379.737 560.089 382.866 559.114 385.687C558.139 388.509 556.283 390.828 553.898 392.205C551.513 393.582 548.764 393.92 546.173 393.157C543.582 392.394 541.328 390.582 539.838 388.064Z" fill="#FFB8B8"/>
<path d="M657.547 412.796C656.167 411.901 654.977 410.674 654.062 409.203C653.146 407.731 652.527 406.051 652.248 404.279C651.969 402.507 652.036 400.688 652.445 398.949C652.855 397.21 653.596 395.594 654.617 394.214L641.543 254.983L665.176 256.205L670.609 393.157C672.544 395.252 673.732 398.076 673.949 401.096C674.167 404.116 673.397 407.121 671.787 409.542C670.177 411.963 667.838 413.631 665.213 414.231C662.589 414.83 659.861 414.32 657.547 412.796Z" fill="#FFB8B8"/>
<path d="M619.845 213.911C633.581 213.911 644.717 201.311 644.717 185.768C644.717 170.225 633.581 157.625 619.845 157.625C606.109 157.625 594.974 170.225 594.974 185.768C594.974 201.311 606.109 213.911 619.845 213.911Z" fill="#FFB8B8"/>
<path d="M657.387 381.131H582.404L582.495 380.471C582.629 379.484 595.858 281.424 586.101 249.344C585.122 246.192 585.208 242.741 586.343 239.656C587.478 236.571 589.581 234.069 592.247 232.634H592.248C606.194 225.202 632.964 216.052 655.558 238.259C658.883 241.58 661.479 245.732 663.142 250.385C664.804 255.037 665.488 260.064 665.137 265.067L657.387 381.131Z" fill="url(#paint2_linear_464:590)"/>
<path d="M596.806 295.916L563.048 288.166L578.872 245.736C579.819 241.626 582.167 238.109 585.403 235.957C588.638 233.804 592.496 233.191 596.13 234.253C599.764 235.314 602.878 237.964 604.788 241.62C606.699 245.275 607.249 249.639 606.32 253.754L596.806 295.916Z" fill="#F43365"/>
<path d="M640.042 310.305L638.012 257.663C636.473 247.767 641.48 238.413 649.179 236.884C656.881 235.36 664.401 242.223 665.947 252.192L673.575 301.381L640.042 310.305Z" fill="#F43365"/>
<path d="M654.893 374.828C666.958 426.823 668.274 492.93 665.019 565.039L648.817 562.748L619.45 425.246L603.248 565.039L585.021 563.893C579.575 488.233 574.273 423.28 582.995 380.558L654.893 374.828Z" fill="#2F2E41"/>
<path d="M636.233 207.518C631.593 213.11 622.976 210.108 622.372 202.468C622.324 201.875 622.328 201.278 622.382 200.685C622.694 197.301 624.422 194.228 624.008 190.655C623.914 189.766 623.622 188.918 623.157 188.193C619.46 182.59 610.781 190.698 607.291 185.627C605.151 182.517 607.667 177.62 606.025 174.145C603.858 169.557 597.439 171.82 593.413 169.308C588.935 166.513 589.203 158.737 592.151 154.008C595.746 148.24 602.05 145.162 608.275 144.719C614.501 144.275 620.683 146.179 626.495 148.742C633.099 151.654 639.647 155.679 643.711 162.249C648.653 170.239 649.128 180.981 646.657 190.324C645.153 196.008 640.022 202.951 636.233 207.518Z" fill="#2F2E41"/>
<path d="M850.603 595.433H102.974C102.655 595.432 102.349 595.287 102.123 595.032C101.898 594.776 101.771 594.429 101.771 594.068C101.771 593.707 101.898 593.361 102.123 593.105C102.349 592.849 102.655 592.705 102.974 592.704H850.603C850.922 592.705 851.228 592.849 851.453 593.105C851.678 593.361 851.805 593.707 851.805 594.068C851.805 594.429 851.678 594.776 851.453 595.032C851.228 595.287 850.922 595.432 850.603 595.433Z" fill="#3F3D56"/>
<path d="M474.93 470.371H343.286C341.553 470.381 339.886 469.613 338.652 468.235C337.418 466.857 336.718 464.982 336.704 463.02V130.53C336.718 128.568 337.418 126.692 338.652 125.314C339.886 123.936 341.553 123.168 343.286 123.179H474.93C476.664 123.168 478.33 123.936 479.564 125.314C480.798 126.692 481.499 128.568 481.512 130.53V463.02C481.499 464.982 480.798 466.857 479.564 468.235C478.33 469.613 476.664 470.381 474.93 470.371Z" fill="white"/>
<path d="M481.512 230.762H336.704V233.054H481.512V230.762Z" fill="#CCCCCC"/>
<path d="M482.018 361.515H337.21V363.807H482.018V361.515Z" fill="#CCCCCC"/>
<path d="M384.299 123.179H382.273V471.517H384.299V123.179Z" fill="#CCCCCC"/>
<path d="M434.931 123.179H432.905V471.517H434.931V123.179Z" fill="#CCCCCC"/>
</g>
<defs>
<linearGradient id="paint0_linear_464:590" x1="847" y1="398" x2="696.5" y2="596" gradientUnits="userSpaceOnUse">
<stop stop-color="#F25670"/>
<stop offset="1" stop-color="#EE686F" stop-opacity="0.51"/>
</linearGradient>
<linearGradient id="paint1_linear_464:590" x1="50" y1="324" x2="218" y2="578" gradientUnits="userSpaceOnUse">
<stop stop-color="#F25670"/>
<stop offset="1" stop-color="#EE686F" stop-opacity="0.51"/>
</linearGradient>
<linearGradient id="paint2_linear_464:590" x1="623.815" y1="224.293" x2="623.815" y2="381.131" gradientUnits="userSpaceOnUse">
<stop offset="0.333333" stop-color="#F43365"/>
<stop offset="1" stop-color="#EE686F"/>
</linearGradient>
<clipPath id="clip0_464:590">
<rect width="881" height="596" fill="white"/>
</clipPath>
</defs>
</svg>
